<?xml version="1.0" encoding="UTF-8"?>
<svg width="52px" height="50px" viewBox="0 0 52 50" version="1.1" xmlns="http://www.w3.org/2000/svg" xmlns:xlink="http://www.w3.org/1999/xlink">
    <!-- Generator: Sketch 61 (89581) - https://sketch.com -->
    <title>anchor_us</title>
    <desc>Created with Sketch.</desc>
    <g id="Page-1" stroke="none" stroke-width="1" fill="none" fill-rule="evenodd">
        <g id="12.9″-iPad-Pro" transform="translate(-596.000000, -732.000000)" fill="#838383">
            <path d="M631.02309,750 L631.02309,755 L625.02309,755 L625.024142,771.005624 C625.601641,770.809924 626.044243,770.633977 626.351948,770.477783 C627.511311,769.889282 630.238178,768.287926 631.342182,766.944824 C632.446186,765.601722 633.537861,764.193237 634.714252,763.138611 C635.478168,762.770935 637.838093,762.643982 639.320942,763.493835 C640.803791,764.343689 642.292622,766.273682 642.292622,767.071533 C642.292622,767.869385 638.510151,771.67041 635.478168,773.783447 C632.446186,775.896484 627.930073,776.69696 626.351948,777.897217 C624.773823,779.097473 622.63863,781.84491 621.479877,781.835702 L621.292622,781.835632 L621.164803,781.826336 C619.982066,781.650638 617.942315,779.054607 616.420551,777.897217 C614.842426,776.69696 610.326313,775.896484 607.294331,773.783447 C604.262348,771.67041 600.479877,767.869385 600.479877,767.071533 C600.479877,766.273682 601.968708,764.343689 603.451557,763.493835 C604.254767,763.033498 605.315313,762.859759 606.240157,762.855634 L606.450995,762.857639 C607.144565,762.874006 607.739948,762.985413 608.058247,763.138611 C609.234638,764.193237 610.326313,765.601722 611.430317,766.944824 C612.534321,768.287926 615.261189,769.889282 616.420551,770.477783 C616.583398,770.560445 616.784028,770.64864 617.02244,770.742368 L617.02309,755 L611.02309,755 L611.02309,750 L631.02309,750 Z M600.826313,752.5 C604.108051,752.5 610.326313,759.392456 610.326313,760.283203 C610.326313,761.17395 607.433125,760.283203 605.966328,760.283203 C604.499531,760.283203 602.851093,760.574463 601.404194,761.720703 C599.957294,762.866943 599.379658,763.450073 598.16872,765.077271 C596.957783,766.704468 596.271748,766.154541 596.02309,765.077271 C595.774433,764 597.544575,752.5 600.826313,752.5 Z M642.52309,752 C645.804829,752 647.57497,763.5 647.326313,764.577271 C647.077656,765.654541 646.391621,766.204468 645.180683,764.577271 C643.969746,762.950073 643.392109,762.366943 641.94521,761.220703 C640.49831,760.074463 638.849873,759.783203 637.383076,759.783203 C635.916279,759.783203 633.02309,760.67395 633.02309,759.783203 C633.02309,758.892456 639.241352,752 642.52309,752 Z M620.52309,732 C624.665226,732 628.02309,735.357864 628.02309,739.5 C628.02309,743.642136 624.665226,747 620.52309,747 C616.380955,747 613.02309,743.642136 613.02309,739.5 C613.02309,735.357864 616.380955,732 620.52309,732 Z M621.02309,736 C618.813951,736 617.02309,737.790861 617.02309,740 C617.02309,742.209139 618.813951,744 621.02309,744 C623.232229,744 625.02309,742.209139 625.02309,740 C625.02309,737.790861 623.232229,736 621.02309,736 Z" id="anchor_us"></path>
        </g>
    </g>
</svg>