<?xml version="1.0" encoding="UTF-8"?>
<svg width="45px" height="44px" viewBox="0 0 45 44" version="1.1" xmlns="http://www.w3.org/2000/svg" xmlns:xlink="http://www.w3.org/1999/xlink">
    <!-- Generator: Sketch 61 (89581) - https://sketch.com -->
    <title>computer</title>
    <desc>Created with Sketch.</desc>
    <g id="Page-1" stroke="none" stroke-width="1" fill="none" fill-rule="evenodd">
        <g id="12.9″-iPad-Pro" transform="translate(-206.000000, -408.000000)" fill="#D8D8D8">
            <path d="M243,408 C247.418278,408 251,411.581722 251,416 L251,434 C251,438.418278 247.418278,442 243,442 L233.866,442 L233.866418,448.646125 L239,450.289312 L239,452 L218,452 L218,450.289312 L224.169939,448.646125 L224.169,442 L214,442 C209.581722,442 206,438.418278 206,434 L206,416 C206,411.581722 209.581722,408 214,408 L243,408 Z M238,413 L219,413 C214.665086,413 211.135457,416.447838 211.003807,420.750821 L211,421 L211,430 C211,434.334914 214.447838,437.864543 218.750821,437.996193 L219,438 L238,438 C242.334914,438 245.864543,434.552162 245.996193,430.249179 L246,430 L246,421 C246,416.581722 242.418278,413 238,413 Z" id="computer"></path>
        </g>
    </g>
</svg>