<?xml version="1.0" encoding="UTF-8"?>
<svg width="50px" height="50px" viewBox="0 0 50 50" version="1.1" xmlns="http://www.w3.org/2000/svg" xmlns:xlink="http://www.w3.org/1999/xlink">
    <!-- Generator: Sketch 62 (91390) - https://sketch.com -->
    <title>world copy</title>
    <desc>Created with Sketch.</desc>
    <g id="Page-1" stroke="none" stroke-width="1" fill="none" fill-rule="evenodd">
        <g id="12.9″-iPad-Pro" transform="translate(-747.000000, -387.000000)" fill="#FFFEFE">
            <path d="M772,387 C785.807119,387 797,398.192881 797,412 C797,425.807119 785.807119,437 772,437 C758.192881,437 747,425.807119 747,412 C747,398.192881 758.192881,387 772,387 Z M772,390.488372 C770.3927,390.488372 768.82642,390.663357 767.319305,390.99525 C768.793291,391.599461 769.8086,392.55583 770.608008,392.993085 C771.740488,393.61252 773.646449,394.934286 774.18994,395.456634 C774.73343,395.978981 776.289272,395.880757 776.289272,397.172715 C776.289272,398.464673 776.169698,399.838958 775.179819,399.838958 C774.18994,399.838958 773.79765,400.673578 773.275245,400.673578 C772.752839,400.673578 771.15677,403.524346 771.15677,403.524346 L771.168549,403.556409 C771.265775,403.827343 771.90021,405.723883 770.608008,405.723883 C769.216407,405.723883 770.340563,408.546546 769.216407,407.514626 C768.09225,406.482706 768.791935,405.21062 767.918855,404.819427 C767.336801,404.558632 766.437458,404.328496 765.220823,404.12902 C764.800236,405.377544 764.589942,406.1534 764.589942,406.456588 C764.589942,406.911371 768.486204,410.781 769.216407,410.781 C769.946609,410.781 774.396904,411.259629 774.788362,411.259629 C775.179819,411.259629 779.954988,411.073969 780.416635,412.625965 C780.7244,413.660629 781.405035,414.464969 782.458539,415.038983 C785.582614,415.291451 787.144652,415.941736 787.144652,416.989837 C787.144652,418.561989 786.307915,420.944347 785.879282,421.515239 C785.450649,422.086131 781.66092,426.781863 780.416635,427.863747 C779.17235,428.94563 776.301479,431.392714 774.788362,431.924146 C773.275245,432.455578 769.716895,433.388422 770.162452,431.799805 C770.608008,430.211187 772.36055,426.094579 773.275245,424.409441 C774.18994,422.724303 770.034278,420.729163 770.034278,419.351756 C770.034278,417.974348 772.048161,414.051917 772.048161,413.573288 C772.048161,413.254201 771.75103,412.799797 771.15677,412.210074 C769.790877,413.118883 768.909751,413.573288 768.513393,413.573288 C768.117034,413.573288 767.918855,413.118883 767.918855,412.210074 C764.749007,411.210361 762.642462,410.322655 761.599219,409.546954 C760.034355,408.383404 760.269708,407.490627 759.731821,405.723883 C759.193934,403.957138 759.60004,401.651844 759.195544,401.651844 C758.791047,401.651844 757.878781,404.083669 757.453545,403.584529 C757.028309,403.08539 757.264613,401.107354 757.651077,399.838958 C758.007174,398.670227 757.378921,396.617176 757.580327,395.98728 C753.178431,399.926461 750.409091,405.641011 750.409091,412 C750.409091,423.880544 760.07567,433.511628 772,433.511628 C783.92433,433.511628 793.590909,423.880544 793.590909,412 C793.590909,400.119456 783.92433,390.488372 772,390.488372 Z" id="world-copy"></path>
        </g>
    </g>
</svg>