<?xml version="1.0" encoding="UTF-8"?>
<svg width="50px" height="50px" viewBox="0 0 50 50" version="1.1" xmlns="http://www.w3.org/2000/svg" xmlns:xlink="http://www.w3.org/1999/xlink">
    <!-- Generator: Sketch 62 (91390) - https://sketch.com -->
    <title>world copy 2</title>
    <desc>Created with Sketch.</desc>
    <g id="Page-1" stroke="none" stroke-width="1" fill="none" fill-rule="evenodd" opacity="0.325916109">
        <g id="12.9″-iPad-Pro" transform="translate(-836.000000, -387.000000)" fill="#FFFEFE">
            <path d="M861,387 C874.807119,387 886,398.192881 886,412 C886,425.807119 874.807119,437 861,437 C847.192881,437 836,425.807119 836,412 C836,398.192881 847.192881,387 861,387 Z M861,390.488372 C859.3927,390.488372 857.82642,390.663357 856.319305,390.99525 C857.793291,391.599461 858.8086,392.55583 859.608008,392.993085 C860.740488,393.61252 862.646449,394.934286 863.18994,395.456634 C863.73343,395.978981 865.289272,395.880757 865.289272,397.172715 C865.289272,398.464673 865.169698,399.838958 864.179819,399.838958 C863.18994,399.838958 862.79765,400.673578 862.275245,400.673578 C861.752839,400.673578 860.15677,403.524346 860.15677,403.524346 L860.168549,403.556409 C860.265775,403.827343 860.90021,405.723883 859.608008,405.723883 C858.216407,405.723883 859.340563,408.546546 858.216407,407.514626 C857.09225,406.482706 857.791935,405.21062 856.918855,404.819427 C856.336801,404.558632 855.437458,404.328496 854.220823,404.12902 C853.800236,405.377544 853.589942,406.1534 853.589942,406.456588 C853.589942,406.911371 857.486204,410.781 858.216407,410.781 C858.946609,410.781 863.396904,411.259629 863.788362,411.259629 C864.179819,411.259629 868.954988,411.073969 869.416635,412.625965 C869.7244,413.660629 870.405035,414.464969 871.458539,415.038983 C874.582614,415.291451 876.144652,415.941736 876.144652,416.989837 C876.144652,418.561989 875.307915,420.944347 874.879282,421.515239 C874.450649,422.086131 870.66092,426.781863 869.416635,427.863747 C868.17235,428.94563 865.301479,431.392714 863.788362,431.924146 C862.275245,432.455578 858.716895,433.388422 859.162452,431.799805 C859.608008,430.211187 861.36055,426.094579 862.275245,424.409441 C863.18994,422.724303 859.034278,420.729163 859.034278,419.351756 C859.034278,417.974348 861.048161,414.051917 861.048161,413.573288 C861.048161,413.254201 860.75103,412.799797 860.15677,412.210074 C858.790877,413.118883 857.909751,413.573288 857.513393,413.573288 C857.117034,413.573288 856.918855,413.118883 856.918855,412.210074 C853.749007,411.210361 851.642462,410.322655 850.599219,409.546954 C849.034355,408.383404 849.269708,407.490627 848.731821,405.723883 C848.193934,403.957138 848.60004,401.651844 848.195544,401.651844 C847.791047,401.651844 846.878781,404.083669 846.453545,403.584529 C846.028309,403.08539 846.264613,401.107354 846.651077,399.838958 C847.007174,398.670227 846.378921,396.617176 846.580327,395.98728 C842.178431,399.926461 839.409091,405.641011 839.409091,412 C839.409091,423.880544 849.07567,433.511628 861,433.511628 C872.92433,433.511628 882.590909,423.880544 882.590909,412 C882.590909,400.119456 872.92433,390.488372 861,390.488372 Z" id="world-copy-2"></path>
        </g>
    </g>
</svg>