<?xml version="1.0" encoding="UTF-8"?>
<svg width="50px" height="35px" viewBox="0 0 50 35" version="1.1" xmlns="http://www.w3.org/2000/svg" xmlns:xlink="http://www.w3.org/1999/xlink">
    <!-- Generator: Sketch 62 (91390) - https://sketch.com -->
    <title>log_white</title>
    <desc>Created with Sketch.</desc>
    <g id="Page-1" stroke="none" stroke-width="1" fill="none" fill-rule="evenodd">
        <g id="12.9″-iPad-Pro" transform="translate(-854.000000, -748.000000)">
            <g id="log_white" transform="translate(854.000000, 747.000000)">
                <path d="M3.78787879,7.51513672 L11.3329338,7.85498047 L25,8.70996094 C29.3378117,8.70996094 32.7651515,8.70996094 35.2820194,8.70996094 C37.7988873,8.70996094 41.4831913,8.35546875 46.3349313,7.64648437" id="Path-39" stroke="#FFFFFF"></path>
                <path d="M3.78787879,34.3936768 C6.03545218,34.3936768 20.1319839,33.0742187 22.9529179,33.0742187 C25.7738518,33.0742187 33.1576261,33.0742187 35.7684511,33.0742187 C37.5090011,33.0742187 40.9902245,33.5753988 46.2121212,34.5777588" id="Path-40" stroke="#FFFFFF"></path>
                <path d="M46.2121212,7 C48.3041089,7 50,13.2680135 50,21 C50,28.7319865 48.3041089,35 46.2121212,35 C45.9526143,35 45.6992025,34.9035484 45.4543668,34.7198152 C47.183605,33.4224032 48.4848485,27.7728489 48.4848485,21 C48.4848485,14.2271511 47.183605,8.5775968 45.4547241,7.28018476 C45.6992025,7.09645163 45.9526143,7 46.2121212,7 Z" id="Combined-Shape" fill="#FFFFFF"></path>
                <path d="M3.78787879,7 C5.87986648,7 7.57575758,13.2680135 7.57575758,21 C7.57575758,28.7319865 5.87986648,35 3.78787879,35 C1.6958911,35 0,28.7319865 0,21 C0,13.2680135 1.6958911,7 3.78787879,7 Z M3.40909091,10 C1.94469953,10 0.757575758,14.9248678 0.757575758,21 C0.757575758,27.0751322 1.94469953,32 3.40909091,32 C4.87348229,32 6.06060606,27.0751322 6.06060606,21 C6.06060606,14.9248678 4.87348229,10 3.40909091,10 Z" id="Combined-Shape" fill="#D8D8D8"></path>
                <path d="M3.40909091,12 C4.45508475,12 5.3030303,16.0294373 5.3030303,21 C5.3030303,25.9705627 4.45508475,30 3.40909091,30 C2.36309706,30 1.51515152,25.9705627 1.51515152,21 C1.51515152,16.0294373 2.36309706,12 3.40909091,12 Z M3.40909091,14 C2.7814946,14 2.27272727,17.1340068 2.27272727,21 C2.27272727,24.8659932 2.7814946,28 3.40909091,28 C4.03668722,28 4.54545455,24.8659932 4.54545455,21 C4.54545455,17.1340068 4.03668722,14 3.40909091,14 Z" id="Combined-Shape" fill="#FFFFFF"></path>
                <path d="M34.2509464,1.90386968 L34.2230162,1.90617282 C34.1329151,1.91726453 34.054255,1.9489464 33.9892485,2.00272632 C33.4908653,2.41503904 33.9837392,3.9700915 35.0901132,5.4760332 C36.1964872,6.98197489 37.4974,7.86853634 37.9957832,7.45622362 C38.0244527,7.43250529 38.049842,7.40500549 38.0720231,7.37395108 L38.0734954,7.35027606 C38.0030227,8.55885144 35.6065918,8.47874463 33.8191889,9.98850099 C32.0317861,11.4982573 30.3655881,14.5679254 29.7768665,16.3388353 C29.1881449,18.1097452 19.5567722,9.51172718 22.7037291,8.16482402 C25.8506861,6.81792086 31.0833255,2.96662045 32.3622137,1.86715307 C32.8243969,1.46981154 33.4539745,1.48205041 34.2509464,1.90386968 Z" id="Combined-Shape" fill="#FFFFFF" transform="translate(30.073495, 9.078052) rotate(-12.000000) translate(-30.073495, -9.078052) "></path>
            </g>
        </g>
    </g>
</svg>