<?xml version="1.0" encoding="UTF-8"?>
<svg width="52px" height="51px" viewBox="0 0 52 51" version="1.1" xmlns="http://www.w3.org/2000/svg" xmlns:xlink="http://www.w3.org/1999/xlink">
    <!-- Generator: Sketch 62 (91390) - https://sketch.com -->
    <title>openbox copy</title>
    <desc>Created with Sketch.</desc>
    <g id="Page-1" stroke="none" stroke-width="1" fill="none" fill-rule="evenodd">
        <g id="12.9″-iPad-Pro" transform="translate(-414.000000, -1022.000000)">
            <g id="openbox-copy" transform="translate(415.000000, 1022.000000)">
                <path d="M23.4677719,9.42145028 L23.6842105,9.47243678 L23.6842105,50 L3.50891136,33.8689928 L3.50877193,14.3674503 L20.3601815,22.4226444 L23.4677719,9.42145028 Z" id="Combined-Shape" stroke="#979797"></path>
                <path d="M24.5614035,12.3070165 L27.3096323,22.2251478 L46.4904035,15.4670165 L46.4912281,36.1993145 L24.5614035,50 L24.5614035,12.3070165 Z M46.4912281,5.2540165 L46.4904035,5.3430165 L38.1624035,6.7310165 L46.4912281,5.2540165 Z" id="Combined-Shape" stroke="#FFFFFF"></path>
                <polygon id="Path-30" stroke="#FFFFFF" points="6.14035088 4.03460784 24.1518167 8.38037343 44.7368421 4.8154725 25.4385965 0.721513464"></polygon>
                <polygon id="Path-31" stroke="#FFFFFF" fill="#FFFFFF" points="3.50891136 4.35437473 0 12.0993829 20.3750597 21.9279201 23.6842105 8.38037343"></polygon>
                <polygon id="Path-32" stroke="#FFFFFF" points="23.6842105 9.07435775 27.3351369 21.9279201 50 14.1382261 47.1922941 5.2540165"></polygon>
                <polygon id="Path-33" stroke="#FFFFFF" fill="#FFFFFF" points="25.4385965 0.721513464 25.4385965 8.38037343 41.2280702 5.2540165"></polygon>
                <polygon id="Path-34" stroke="#FFFFFF" fill="#FFFFFF" points="23.6842105 11.5067304 22.0602635 30.8195153 3.50877193 19.5023023 3.50877193 33.6713809 23.6842105 50"></polygon>
            </g>
        </g>
    </g>
</svg>