<?xml version="1.0" encoding="UTF-8"?>
<svg width="26px" height="49px" viewBox="0 0 26 49" version="1.1" xmlns="http://www.w3.org/2000/svg" xmlns:xlink="http://www.w3.org/1999/xlink">
    <!-- Generator: Sketch 61 (89581) - https://sketch.com -->
    <title>pin</title>
    <desc>Created with Sketch.</desc>
    <g id="Page-1" stroke="none" stroke-width="1" fill="none" fill-rule="evenodd">
        <g id="12.9″-iPad-Pro" transform="translate(-500.000000, -1125.000000)" fill="#FFFFFF">
            <g id="pin" transform="translate(513.500000, 1150.000000) scale(-1, 1) translate(-513.500000, -1150.000000) translate(500.000000, 1125.000000)">
                <path d="M8.16169209,13.0013529 C8.27807708,25.0554913 8.4100928,34.7754556 8.55773926,42.1612458 C8.59912109,44.1976919 9.04296875,46.4465656 9.88928223,48.907867 L9.80482639,48.6503988 C9.71306713,49.0884154 9.61145833,49.5382824 9.5,50 C8.9375,47.5639432 8.61486816,45.3417397 8.53210449,43.3333895 C8.22387374,35.7303643 8.04650558,25.6192345 8,13 Z M11,13 C10.8272687,28.3714739 10.6425763,38.4826038 10.4459229,43.3333895 C10.4431188,44.7478301 10.2575968,46.3821085 9.88935704,48.2362249 C9.88746486,45.8971161 9.8876095,43.8723758 9.88928223,42.1612458 C9.98421167,37.4125442 10.0995656,27.6921272 10.235344,12.9999948 L11,13 Z" id="pin_shaft" stroke="#FFFFFF" stroke-width="0.8" transform="translate(9.500000, 31.500000) rotate(23.000000) translate(-9.500000, -31.500000) "></path>
                <path d="M19.5,0 C23.6421356,0 27,3.35786438 27,7.5 C27,11.6421356 23.6421356,15 19.5,15 C15.3578644,15 12,11.6421356 12,7.5 C12,3.35786438 15.3578644,0 19.5,0 Z M25.9584961,6.94360352 C25.7829611,6.75167054 25.6557231,6.75167054 25.5767822,6.94360352 C25.1046999,8.09140098 24.2635584,10.2197002 22.7710571,11.2735596 C22.1193729,11.7337157 20.9435107,12.4605747 20.135376,12.7349243 C19.0307617,13.1099243 18.3838512,13.0570577 17.7402344,13.3242187 C17.5400263,13.4073238 17.5400263,13.5386714 17.7402344,13.7182617 C18.6347322,13.86953 19.4331127,13.9157133 20.135376,13.8568115 C21.1887708,13.7684589 22.4753065,13.2429643 23.6386719,12.3624268 C24.8020373,11.4818893 25.202817,10.4256158 25.5767822,9.41564941 C25.8260923,8.74233849 25.9533303,7.91832319 25.9584961,6.94360352 Z M14.3020467,3.59727747 C13.1387403,5.14103721 12.7320361,6.7966644 13.3936474,7.29522429 C14.0552587,7.79378417 15.5346469,6.94648228 16.6979533,5.40272253 C17.8612597,3.85896279 18.2679639,2.2033356 17.6063526,1.70477571 C16.9447413,1.20621583 15.4653531,2.05351772 14.3020467,3.59727747 Z" id="pin_head"></path>
            </g>
        </g>
    </g>
</svg>