<?xml version="1.0" encoding="UTF-8"?>
<svg width="63px" height="25px" viewBox="0 0 63 25" version="1.1" xmlns="http://www.w3.org/2000/svg" xmlns:xlink="http://www.w3.org/1999/xlink">
    <!-- Generator: Sketch 61.2 (89653) - https://sketch.com -->
    <title>Combined Shape</title>
    <desc>Created with Sketch.</desc>
    <g id="Page-1" stroke="none" stroke-width="1" fill="none" fill-rule="evenodd">
        <g id="12.9″-iPad-Pro" transform="translate(-392.000000, -1038.000000)" fill="#0366D7">
            <path d="M421.691268,1038 C424.359745,1038 426.651541,1041.11065 427.645105,1045.5545 L450.309486,1047.42097 C451.097753,1044.75778 452.877412,1042.87226 454.965271,1042.76658 L454.999091,1042.765 L455,1058.23501 C453.040404,1058.1545 451.348102,1056.50631 450.485201,1054.11502 L427.554628,1055.83192 C426.517173,1060.06863 424.281707,1063 421.691268,1063 C421.539263,1063 421.388481,1062.98991 421.239091,1062.97005 L421.239,1052.285 L398.817345,1052.28571 C398.618345,1052.28571 398.420519,1052.25525 398.230737,1052.19539 L392,1050.22999 L398.260601,1048.48803 C398.430802,1048.44067 398.606649,1048.41667 398.783316,1048.41667 L421.239,1048.416 L421.239091,1038.02995 C421.388481,1038.01009 421.539263,1038 421.691268,1038 Z M453.492576,1046.92857 C453.159621,1046.92857 452.889707,1047.66144 452.889707,1048.56548 C452.889707,1049.46951 453.159621,1050.20238 453.492576,1050.20238 C453.825531,1050.20238 454.095444,1049.46951 454.095444,1048.56548 C454.095444,1047.66144 453.825531,1046.92857 453.492576,1046.92857 Z M420.792688,1049.30952 L399.077981,1049.30952 C398.831425,1049.30952 398.631552,1049.5094 398.631552,1049.75595 C398.631552,1049.97511 398.789477,1050.15739 398.997735,1050.19519 L399.077981,1050.20238 L420.792688,1050.20238 C421.039244,1050.20238 421.239117,1050.00251 421.239117,1049.75595 C421.239117,1049.5094 421.039244,1049.30952 420.792688,1049.30952 Z M428.552705,1046.53562 C428.057404,1046.53562 427.649185,1046.90846 427.593395,1047.3888 L427.586897,1047.50143 L427.586897,1047.56956 C427.586897,1048.0795 427.951768,1048.50945 428.442327,1048.60145 L428.557655,1048.61657 L448.836669,1050.15138 C448.860922,1050.15321 448.885235,1050.15413 448.909558,1050.15413 C449.404858,1050.15413 449.813078,1049.78129 449.868868,1049.30096 L449.875365,1049.18833 L449.875365,1049.12019 C449.875365,1048.61026 449.510495,1048.18031 449.019936,1048.0883 L448.904607,1048.07319 L428.625593,1046.53838 C428.60134,1046.53654 428.577027,1046.53562 428.552705,1046.53562 Z M422.746288,1043.35714 C422.413333,1043.35714 422.143419,1044.35651 422.143419,1045.58929 C422.143419,1046.82206 422.413333,1047.82143 422.746288,1047.82143 C423.079243,1047.82143 423.349156,1046.82206 423.349156,1045.58929 C423.349156,1044.35651 423.079243,1043.35714 422.746288,1043.35714 Z" id="Combined-Shape"></path>
        </g>
    </g>
</svg>