<?xml version="1.0" encoding="UTF-8"?>
<svg width="43px" height="50px" viewBox="0 0 43 50" version="1.1" xmlns="http://www.w3.org/2000/svg" xmlns:xlink="http://www.w3.org/1999/xlink">
    <!-- Generator: Sketch 62 (91390) - https://sketch.com -->
    <title>present_white copy</title>
    <desc>Created with Sketch.</desc>
    <g id="Page-1" stroke="none" stroke-width="1" fill="none" fill-rule="evenodd" opacity="0.332868304">
        <g id="12.9″-iPad-Pro" transform="translate(-839.000000, -467.000000)">
            <g id="present_white-copy" transform="translate(839.000000, 467.000000)">
                <path d="M18.1814545,29.6888405 L18.1814545,49.3848405 L4.54545455,49.3858102 L4.54545455,29.6888405 L18.1814545,29.6888405 Z M39.3939394,29.6888405 L39.3939394,49.3858102 L25.7574545,49.3848405 L25.7574545,29.6888405 L39.3939394,29.6888405 Z" id="Combined-Shape" fill="#FFFFFF"></path>
                <path d="M18.1817273,15.2949011 L18.1817273,27.4159011 L2.27272727,27.4161132 L2.27272727,15.2949011 L18.1817273,15.2949011 Z M41.6666667,15.2949011 L41.6666667,27.4161132 L25.7567273,27.4159011 L25.7567273,15.2949011 L41.6666667,15.2949011 Z" id="Combined-Shape" fill="#FFFCFC"></path>
                <path d="M32.6556581,5.41793319 C35.7163614,1.05836469 40.559156,-1.28298714 42.3935399,0.729693373 C44.179904,2.68968677 41.5177784,7.73844961 37.1685606,10.7494466 C34.269082,12.7567779 29.2027942,14.2719294 21.969697,15.2949011 C21.3481402,15.2517083 21.3481402,15.0657669 21.969697,14.7370768 C22.7934052,14.3014854 24.9463201,14.0852984 26.4977657,13.5056463 C30.1127398,12.1550173 30.6063565,8.3368933 32.6556581,5.41793319 Z M33.6026278,6.03938206 C33.0477764,6.79537258 32.3675433,8.48769568 31.6387754,9.67485791 C31.0622316,10.6140473 30.4623587,11.4151946 30.2183209,11.7784438 C29.5752323,12.7356785 30.0379898,12.7356785 30.2183209,12.7356785 C32.952326,11.9921593 35.2638938,10.9007398 36.7831143,9.67485791 C37.5118864,9.08680082 38.8301881,8.32940479 39.9114435,6.79603257 C41.0842063,5.13288998 41.9623004,2.67724995 41.0833185,1.76100256 C39.3939394,1.30468027e-14 35.7869466,3.06322634 33.6026278,6.03938206 Z" id="Combined-Shape" fill="#FFFFFF"></path>
                <path d="M10.3006364,5.41793319 C12.349938,8.3368933 12.8435547,12.1550173 16.4585288,13.5056463 C18.0099744,14.0852984 20.1628893,14.3014854 20.9865975,14.7370768 C21.6081543,15.0657669 21.6081543,15.2517083 20.9865975,15.2949011 C13.7535003,14.2719294 8.68721246,12.7567779 5.78773391,10.7494466 C1.43851607,7.73844961 -1.22360951,2.68968677 0.56275462,0.729693373 C2.3971385,-1.28298714 7.2399331,1.05836469 10.3006364,5.41793319 Z M9.3530776,6.03938206 C7.16875882,3.06322634 3.56176604,3.19205941e-14 1.8723869,1.76100256 C0.993405079,2.67724995 1.87149909,5.13288998 3.0442619,6.79603257 C4.1255173,8.32940479 5.44381907,9.08680082 6.17259109,9.67485791 C7.69181162,10.9007398 13.2413865,12.5848539 12.7373845,11.5070223 C12.3166579,10.6072789 10.3468839,7.39345281 9.3530776,6.03938206 Z" id="Combined-Shape" fill="#FFFFFF"></path>
            </g>
        </g>
    </g>
</svg>