<?xml version="1.0" encoding="UTF-8"?>
<svg width="50px" height="48px" viewBox="0 0 50 48" version="1.1" xmlns="http://www.w3.org/2000/svg" xmlns:xlink="http://www.w3.org/1999/xlink">
    <!-- Generator: Sketch 61 (89581) - https://sketch.com -->
    <title>sailboat_us</title>
    <desc>Created with Sketch.</desc>
    <g id="Page-1" stroke="none" stroke-width="1" fill="none" fill-rule="evenodd">
        <g id="12.9″-iPad-Pro" transform="translate(-595.000000, -659.000000)" fill="#838383">
            <g id="sailboat_us" transform="translate(595.000000, 659.000000)">
                <path d="M15.6810392,0.596596992 C17.904672,-1.94637176 27.9501472,4.16026887 32.1713224,9.10480012 C36.3924977,14.0493314 39.088051,23.818472 36.9484114,23.818472 C34.8087718,23.818472 32.081558,23.0020657 27.1289793,23.818472 C22.1764006,24.6348782 16.4604464,27.3974907 15.5704181,26.0973782 C14.5692228,24.6348782 15.5312487,23.1597886 16.6357994,20.3844876 C17.3377287,18.6208157 16.7931734,14.3379789 16.7410761,12.6055814 C16.6357994,9.10480012 13.4574064,3.13956574 15.6810392,0.596596992 Z" id="Path-8"></path>
                <path d="M9.19905682,47.506472 C6.2003589,46.8506699 4.01989015,45.4498522 2.65765057,43.3040189 C0.61429119,40.0852689 -0.825943185,34.0919095 0.52991619,32.3770657 C1.66921058,30.9361258 0.78383134,31.3996652 4.15491619,31.3239407 C18.225264,31.0078796 31.7842484,31.0078796 44.8318693,31.3239407 C47.5452235,30.768472 49.123562,31.3501126 49.5668849,33.0688626 C50.2318693,35.6469876 49.0670256,37.2895657 46.8865568,40.6141751 C44.7060881,43.9387845 42.9826506,46.2685814 40.1201506,47.0044095 C38.2118172,47.4949616 27.904786,47.6623157 9.19905682,47.506472 Z" id="Path-9"></path>
            </g>
        </g>
    </g>
</svg>