<?xml version="1.0" encoding="UTF-8"?>
<svg width="48px" height="48px" viewBox="0 0 48 48" version="1.1" xmlns="http://www.w3.org/2000/svg" xmlns:xlink="http://www.w3.org/1999/xlink">
    <!-- Generator: Sketch 61 (89581) - https://sketch.com -->
    <title>spyglass</title>
    <desc>Created with Sketch.</desc>
    <g id="Page-1" stroke="none" stroke-width="1" fill="none" fill-rule="evenodd">
        <g id="12.9″-iPad-Pro" transform="translate(-490.000000, -582.000000)" fill="#FFFFFF">
            <path d="M531.603605,611.786273 C534.339859,611.227869 536.561674,612.20677 537.057913,612.817583 C537.720515,613.633171 538.033594,614.670687 537.99715,615.930132 C537.19448,615.014457 536.318792,614.551263 535.370087,614.540549 C533.947029,614.524477 530.188329,614.55662 527.033869,617.582148 C523.879408,620.607676 523.166031,622.917834 522.647583,625.658389 C522.129135,628.398945 523.991463,629.980209 523.991463,629.980209 C523.991463,629.980209 521.997784,630.275764 520.639545,628.58259 C519.846505,627.593989 519.218281,625.042446 520.329449,622.012743 C521.121377,619.853477 522.261811,617.987067 524.398051,615.930132 C525.77239,614.606812 528.859487,612.346282 531.603605,611.786273 Z M537.230615,618.736639 C537.914938,621.363176 535.467162,625.088837 533.535383,626.683623 C531.603605,628.27841 527.33521,630.583472 525.787259,628.633548 C527.756778,629.10824 530.833422,627.878097 532.131391,625.512277 C531.448216,625.741294 529.359493,626.426433 528.531921,624.726252 C527.704349,623.02607 529.774129,620.345439 531.507003,619.399778 C529.949851,619.104189 528.148905,619.89567 526.104164,621.77422 C527.218681,619.771901 528.839164,618.263449 530.965612,617.248864 C534.155284,615.726986 536.546293,616.110101 537.230615,618.736639 Z M515.948222,607.139304 C519.532863,603.851532 523.127123,603.445247 524.497461,603.613996 C526.105914,604.896959 529.85625,607.906808 531.603605,609.614486 C529.871813,609.900831 526.540905,611.610469 523.329056,614.633449 C520.117206,617.656429 518.048083,621.44417 517.76386,623.836448 C516.680274,622.901762 512.201388,617.220739 511.281216,615.735708 C510.963338,614.778091 512.36358,610.427075 515.948222,607.139304 Z M520.300268,601.060416 C521.511212,601.350485 522.074275,601.674982 521.989456,602.033909 C518.64519,602.766527 516.005416,604.207198 514.070136,606.355924 C512.134856,608.504649 510.795126,611.07724 510.050947,614.073696 C509.558373,613.275224 509.312085,612.289123 509.312085,611.115393 C509.312085,609.354797 510.093162,607.215936 512.46246,604.624922 C514.831759,602.033909 518.483851,600.625314 520.300268,601.060416 Z M510.018264,594.286082 L516.682414,599.675537 C514.423228,600.523899 512.623904,601.586667 511.284442,602.86384 C509.94498,604.141014 508.757861,606.099006 507.723086,608.737814 L507.723086,608.737814 L502.433802,601.991182 C502.505917,599.720926 503.28944,597.891276 504.78437,596.502231 C506.2793,595.113186 508.023931,594.37447 510.018264,594.286082 L510.018264,594.286082 Z M506.371813,591.828606 C507.129327,592.012432 507.690704,592.226481 508.055944,592.470753 C506.245946,593.028233 504.69339,593.9039 503.398275,595.097752 C502.10316,596.291605 501.166313,597.959273 500.587734,600.100757 C500.05186,599.437813 499.783923,598.734425 499.783923,597.990594 C499.783923,596.874847 500.408852,595.566358 501.890982,593.924349 C503.373111,592.282339 505.235542,591.552868 506.371813,591.828606 Z M497.81703,586.040081 L503.258401,590.557387 C502.179426,591.098098 501.308343,591.68572 500.64515,592.320252 C499.981957,592.954784 499.309093,593.873562 498.626558,595.076585 L498.626558,595.076585 L494.139452,589.669657 C494.272443,588.600022 494.709023,587.720149 495.449191,587.030037 C496.189359,586.339924 496.978638,586.009939 497.81703,586.040081 L497.81703,586.040081 Z M492.608425,583.658191 C494.724433,581.751973 497.558778,581.751973 498.060982,582.358862 C498.395785,582.763455 498.523209,583.390629 498.443253,584.240385 C497.006707,583.952146 495.572107,584.396297 494.139452,585.572836 C492.706798,586.749376 492.122336,588.321461 492.386067,590.289089 C491.831758,590.467955 491.224632,590.305706 490.564689,589.802343 C490.006652,589.376708 489.772111,588.137216 490.281634,586.750748 C490.675966,585.677727 491.785068,584.399917 492.608425,583.658191 Z" id="spyglass"></path>
        </g>
    </g>
</svg>