<?xml version="1.0" encoding="UTF-8"?>
<svg width="50px" height="50px" viewBox="0 0 50 50" version="1.1" xmlns="http://www.w3.org/2000/svg" xmlns:xlink="http://www.w3.org/1999/xlink">
    <!-- Generator: Sketch 62 (91390) - https://sketch.com -->
    <title>television</title>
    <desc>Created with Sketch.</desc>
    <g id="Page-1" stroke="none" stroke-width="1" fill="none" fill-rule="evenodd">
        <g id="12.9″-iPad-Pro" transform="translate(-738.000000, -235.000000)" fill="#FFFFFF">
            <g id="television" transform="translate(738.000000, 235.000000)">
                <path d="M47,14.893617 C48.6568542,14.893617 50,16.2367628 50,17.893617 L50,47 C50,48.6568542 48.6568542,50 47,50 L3,50 C1.34314575,50 -2.41183085e-16,48.6568542 0,47 L0,17.893617 C-6.46995335e-16,16.2367628 1.34314575,14.893617 3,14.893617 L47,14.893617 Z M32.8695652,18.0851064 L6.26086957,18.0851064 C4.66318868,18.0851064 3.35720869,19.3340263 3.26596226,20.9088336 L3.26086957,21.0851064 L3.26086957,44.3404255 C3.26086957,45.9381064 4.50978953,47.2440864 6.08459678,47.3353328 L6.26086957,47.3404255 L32.8695652,47.3404255 C34.4672461,47.3404255 35.7732261,46.0915056 35.8644725,44.5166983 L35.8695652,44.3404255 L35.8695652,21.0851064 C35.8695652,19.4282521 34.5264195,18.0851064 32.8695652,18.0851064 Z M43.2065217,41.4893617 C41.8558253,41.4893617 40.7608696,42.5610205 40.7608696,43.8829787 C40.7608696,45.2049369 41.8558253,46.2765957 43.2065217,46.2765957 C44.5572181,46.2765957 45.6521739,45.2049369 45.6521739,43.8829787 C45.6521739,42.5610205 44.5572181,41.4893617 43.2065217,41.4893617 Z M46.2826087,29.787234 L39.0434783,29.787234 C38.5306424,29.787234 38.1079711,30.1732742 38.050206,30.6706129 L38.0434783,30.787234 L38.0434783,31.4468085 C38.0434783,31.9596443 38.4295185,32.3823157 38.9268571,32.4400808 L39.0434783,32.4468085 L46.2826087,32.4468085 C46.7954445,32.4468085 47.2181159,32.0607683 47.275881,31.5634296 L47.2826087,31.4468085 L47.2826087,30.787234 C47.2826087,30.2349493 46.8348934,29.787234 46.2826087,29.787234 Z M46.2826087,26.0638298 L39.0434783,26.0638298 C38.5306424,26.0638298 38.1079711,26.44987 38.050206,26.9472087 L38.0434783,27.0638298 L38.0434783,27.7234043 C38.0434783,28.2362401 38.4295185,28.6589114 38.9268571,28.7166765 L39.0434783,28.7234043 L46.2826087,28.7234043 C46.7954445,28.7234043 47.2181159,28.3373641 47.275881,27.8400254 L47.2826087,27.7234043 L47.2826087,27.0638298 C47.2826087,26.511545 46.8348934,26.0638298 46.2826087,26.0638298 Z M46.2826087,22.3404255 L39.0434783,22.3404255 C38.5306424,22.3404255 38.1079711,22.7264657 38.050206,23.2238044 L38.0434783,23.3404255 L38.0434783,24 C38.0434783,24.5128358 38.4295185,24.9355072 38.9268571,24.9932723 L39.0434783,25 L46.2826087,25 C46.7954445,25 47.2181159,24.6139598 47.275881,24.1166211 L47.2826087,24 L47.2826087,23.3404255 C47.2826087,22.7881408 46.8348934,22.3404255 46.2826087,22.3404255 Z M46.2826087,18.6170213 L39.0434783,18.6170213 C38.5306424,18.6170213 38.1079711,19.0030615 38.050206,19.5004002 L38.0434783,19.6170213 L38.0434783,20.2765957 C38.0434783,20.7894316 38.4295185,21.2121029 38.9268571,21.269868 L39.0434783,21.2765957 L46.2826087,21.2765957 C46.7954445,21.2765957 47.2181159,20.8905556 47.275881,20.3932169 L47.2826087,20.2765957 L47.2826087,19.6170213 C47.2826087,19.0647365 46.8348934,18.6170213 46.2826087,18.6170213 Z" id="Combined-Shape"></path>
                <g id="Group" transform="translate(3.804348, 0.000000)">
                    <path d="M14.6596723,10.6382979 C18.1152978,10.6382979 20.9431991,12.2823125 21.1671229,14.3614634 L8.15222174,14.3614634 C8.37614557,12.2823125 11.2040469,10.6382979 14.6596723,10.6382979 Z" id="Combined-Shape"></path>
                    <path d="M25.0407285,1.87770439 C25.6320415,1.42554955 26.4859076,1.52816045 26.9478919,2.10689226 C27.4098762,2.68562407 27.3050346,3.52132283 26.7137217,3.97347767 C26.1957499,4.3695513 25.4763153,4.33994114 24.9952965,3.93750832 L15.5519899,11.1584163 L15.2173913,10.7392617 L24.6607504,3.51848086 C24.3780353,2.96429464 24.5227037,2.27381859 25.0407285,1.87770439 Z" id="Combined-Shape" transform="translate(21.226686, 6.377080) rotate(-12.000000) translate(-21.226686, -6.377080) "></path>
                    <path d="M10.9102938,1.87770439 C11.5016067,1.42554955 12.3554728,1.52816045 12.8174571,2.10689226 C13.2794414,2.68562407 13.1745998,3.52132283 12.5832869,3.97347767 C12.0653151,4.3695513 11.3458806,4.33994114 10.8648617,3.93750832 L1.42155515,11.1584163 L1.08695652,10.7392617 L10.5303156,3.51848086 C10.2476005,2.96429464 10.3922689,2.27381859 10.9102938,1.87770439 Z" id="Combined-Shape-Copy" transform="translate(7.096251, 6.377080) scale(-1, 1) rotate(-12.000000) translate(-7.096251, -6.377080) "></path>
                </g>
            </g>
        </g>
    </g>
</svg>