<?xml version="1.0" encoding="UTF-8"?>
<svg width="24px" height="50px" viewBox="0 0 24 50" version="1.1" xmlns="http://www.w3.org/2000/svg" xmlns:xlink="http://www.w3.org/1999/xlink">
    <!-- Generator: Sketch 62 (91390) - https://sketch.com -->
    <title>watch_white</title>
    <desc>Created with Sketch.</desc>
    <g id="Page-1" stroke="none" stroke-width="1" fill="none" fill-rule="evenodd">
        <g id="12.9″-iPad-Pro" transform="translate(-694.000000, -770.000000)" fill="#FFFFFF">
            <g id="watch_white" transform="translate(694.000000, 770.000000)">
                <path d="M13.6236797,18.8679245 L15,20.1387809 L9.83427027,24.2866054 L8.35834749,25.4716981 L6.98202723,24.2008418 L4,21.4473197 L5.47592278,20.262227 L8.458,23.0149245 L13.6236797,18.8679245 Z" id="Combined-Shape" transform="translate(9.500000, 22.169811) scale(-1, 1) translate(-9.500000, -22.169811) "></path>
                <rect id="Rectangle" x="21" y="21.6981132" width="3" height="5.66037736"></rect>
                <path d="M20,12.2641509 L20,36.7924528 L0,36.7924528 L0,12.2641509 L20,12.2641509 Z M18,14.1509434 L2,14.1509434 L2,34.9056604 L18,34.9056604 L18,14.1509434 Z M9,15.0943396 L11,15.0943396 L11,17.9245283 L9,17.9245283 L9,15.0943396 Z M3,23.5849057 L6,23.5849057 L6,25.4716981 L3,25.4716981 L3,23.5849057 Z M14,23.5849057 L17,23.5849057 L17,25.4716981 L14,25.4716981 L14,23.5849057 Z M9,31.1320755 L11,31.1320755 L11,33.9622642 L9,33.9622642 L9,31.1320755 Z" id="Combined-Shape"></path>
                <rect id="Rectangle" x="3" y="0" width="14" height="10.3773585"></rect>
                <rect id="Rectangle-Copy-10" x="3" y="38.6792453" width="14" height="11.3207547"></rect>
            </g>
        </g>
    </g>
</svg>