<?xml version="1.0" encoding="UTF-8"?>
<svg width="52px" height="50px" viewBox="0 0 52 50" version="1.1" xmlns="http://www.w3.org/2000/svg" xmlns:xlink="http://www.w3.org/1999/xlink">
    <!-- Generator: Sketch 61 (89581) - https://sketch.com -->
    <title>anchor</title>
    <desc>Created with Sketch.</desc>
    <g id="Page-1" stroke="none" stroke-width="1" fill="none" fill-rule="evenodd">
        <g id="12.9″-iPad-Pro" transform="translate(-492.000000, -732.000000)" fill="#FFFFFF">
            <path d="M527.02309,750 L527.02309,755 L521.02309,755 L521.024142,771.005624 C521.601641,770.809924 522.044243,770.633977 522.351948,770.477783 C523.511311,769.889282 526.238178,768.287926 527.342182,766.944824 C528.446186,765.601722 529.537861,764.193237 530.714252,763.138611 C531.478168,762.770935 533.838093,762.643982 535.320942,763.493835 C536.803791,764.343689 538.292622,766.273682 538.292622,767.071533 C538.292622,767.869385 534.510151,771.67041 531.478168,773.783447 C528.446186,775.896484 523.930073,776.69696 522.351948,777.897217 C520.773823,779.097473 518.63863,781.84491 517.479877,781.835702 L517.292622,781.835632 L517.164803,781.826336 C515.982066,781.650638 513.942315,779.054607 512.420551,777.897217 C510.842426,776.69696 506.326313,775.896484 503.294331,773.783447 C500.262348,771.67041 496.479877,767.869385 496.479877,767.071533 C496.479877,766.273682 497.968708,764.343689 499.451557,763.493835 C500.254767,763.033498 501.315313,762.859759 502.240157,762.855634 L502.450995,762.857639 C503.144565,762.874006 503.739948,762.985413 504.058247,763.138611 C505.234638,764.193237 506.326313,765.601722 507.430317,766.944824 C508.534321,768.287926 511.261189,769.889282 512.420551,770.477783 C512.583398,770.560445 512.784028,770.64864 513.02244,770.742368 L513.02309,755 L507.02309,755 L507.02309,750 L527.02309,750 Z M496.826313,752.5 C500.108051,752.5 506.326313,759.392456 506.326313,760.283203 C506.326313,761.17395 503.433125,760.283203 501.966328,760.283203 C500.499531,760.283203 498.851093,760.574463 497.404194,761.720703 C495.957294,762.866943 495.379658,763.450073 494.16872,765.077271 C492.957783,766.704468 492.271748,766.154541 492.02309,765.077271 C491.774433,764 493.544575,752.5 496.826313,752.5 Z M538.52309,752 C541.804829,752 543.57497,763.5 543.326313,764.577271 C543.077656,765.654541 542.391621,766.204468 541.180683,764.577271 C539.969746,762.950073 539.392109,762.366943 537.94521,761.220703 C536.49831,760.074463 534.849873,759.783203 533.383076,759.783203 C531.916279,759.783203 529.02309,760.67395 529.02309,759.783203 C529.02309,758.892456 535.241352,752 538.52309,752 Z M516.52309,732 C520.665226,732 524.02309,735.357864 524.02309,739.5 C524.02309,743.642136 520.665226,747 516.52309,747 C512.380955,747 509.02309,743.642136 509.02309,739.5 C509.02309,735.357864 512.380955,732 516.52309,732 Z M517.02309,736 C514.813951,736 513.02309,737.790861 513.02309,740 C513.02309,742.209139 514.813951,744 517.02309,744 C519.232229,744 521.02309,742.209139 521.02309,740 C521.02309,737.790861 519.232229,736 517.02309,736 Z" id="anchor"></path>
        </g>
    </g>
</svg>