<?xml version="1.0" encoding="UTF-8"?>
<svg width="41px" height="49px" viewBox="0 0 41 49" version="1.1" xmlns="http://www.w3.org/2000/svg" xmlns:xlink="http://www.w3.org/1999/xlink">
    <!-- Generator: Sketch 61 (89581) - https://sketch.com -->
    <title>face_happy</title>
    <desc>Created with Sketch.</desc>
    <g id="Page-1" stroke="none" stroke-width="1" fill="none" fill-rule="evenodd">
        <g id="12.9″-iPad-Pro" transform="translate(-399.000000, -404.000000)" fill="#D8D8D8">
            <path d="M418.238037,404.000964 C424.879875,404.059936 434.126465,405.281726 439.552002,409.927966 C439.639648,412.53783 439.552002,410.932361 439.552002,416.318591 C439.552002,421.704822 439.233398,429.86571 438.5,432.464832 C437.766602,435.063953 434.737793,440.380115 431.092041,445.340076 C427.446289,450.300037 424.798096,452.449939 419.172607,452.449939 C413.547119,452.449939 410.227783,449.940906 407.155518,446.231921 C404.083252,442.522937 400.240479,435.875232 399.800049,430.945544 C399.359619,426.015857 399,415.370105 399,410.429675 C402.583008,406.59325 411.596199,403.941992 418.238037,404.000964 Z M427.929199,434.497302 C425.643392,436.463285 422.724528,437.446277 419.172607,437.446277 C415.620687,437.446277 412.454834,436.463285 409.675049,434.497302 C412.118896,439.820056 415.284749,442.481433 419.172607,442.481433 C423.060465,442.481433 425.979329,439.820056 427.929199,434.497302 Z M434.290771,422.352771 L423.172607,422.352771 L423.172607,422.352771 C423.172607,422.352771 424.773926,426.315906 428.170166,426.315906 C430.434326,426.315906 432.474528,424.994861 434.290771,422.352771 Z M416.062012,422.265369 L404.943848,422.265369 C406.760091,424.907458 408.800293,426.228503 411.064453,426.228503 C414.460693,426.228503 416.062012,422.265369 416.062012,422.265369 L416.062012,422.265369 Z" id="face_happy"></path>
        </g>
    </g>
</svg>