<?xml version="1.0" encoding="UTF-8"?>
<svg width="50px" height="48px" viewBox="0 0 50 48" version="1.1" xmlns="http://www.w3.org/2000/svg" xmlns:xlink="http://www.w3.org/1999/xlink">
    <!-- Generator: Sketch 61 (89581) - https://sketch.com -->
    <title>sailboat</title>
    <desc>Created with Sketch.</desc>
    <g id="Page-1" stroke="none" stroke-width="1" fill="none" fill-rule="evenodd">
        <g id="12.9″-iPad-Pro" transform="translate(-492.000000, -659.000000)">
            <g id="sailboat" transform="translate(492.000000, 659.000000)">
                <path d="M16.7010357,24.832641 C16.9185655,24.8158091 17.2116283,24.769581 17.5734542,24.6913255 C18.0683889,24.5842813 18.6631906,24.4254189 19.4680189,24.1893516 C19.9049439,24.0611953 21.5422499,23.5662394 21.8100013,23.4865457 C22.9334949,23.1521484 23.8217801,22.9048721 24.6913878,22.6923323 C25.463579,22.503602 26.1836654,22.3527087 26.8687399,22.2397778 C29.7790368,21.7600308 31.8702804,21.7600308 34.7119267,22.0450355 C35.392644,22.1133085 35.8084785,22.1547738 36.0969489,22.1799281 C36.0715296,21.3631028 35.8337342,20.1552623 35.4148665,18.7829152 C34.44355,15.6005656 32.7537794,12.251325 30.9544477,10.1436532 C29.0114581,7.86770586 25.6197332,5.2148108 22.4052144,3.44438129 C20.8096147,2.5655882 19.3654711,1.96545199 18.2564875,1.72008222 C17.7513593,1.60831935 17.3464765,1.57752803 17.0683598,1.61496732 C16.9216519,1.63471672 16.8823135,1.65346205 16.8855057,1.64981135 C16.284996,2.33656029 16.3628152,3.90063478 17.1621841,6.93769291 C17.2194284,7.15518227 17.2776872,7.37266108 17.3630569,7.68863445 C18.0942903,10.3951024 18.3033976,11.3286009 18.3403531,12.5574873 C18.346384,12.7580316 18.3604512,13.0152361 18.3843548,13.3741901 C18.3982925,13.5834893 18.4553532,14.3908625 18.4605149,14.4655119 C18.5154015,15.2592935 18.549896,15.8568375 18.5711878,16.4542195 C18.6431806,18.4741162 18.5413507,19.9234533 18.1223886,20.9761399 C17.0050195,23.7836485 16.6915291,24.515924 16.7010357,24.832641 Z M36.0708893,22.7339195 C36.0699484,22.7359751 36.0690219,22.7380308 36.0681097,22.7400865 C36.0701653,22.7354539 36.07286,22.7242414 36.0758044,22.7068558 Z" id="Path-8" stroke="#FFFFFF" stroke-width="3.2"></path>
                <path d="M9.19905682,47.506472 C6.2003589,46.8506699 4.01989015,45.4498522 2.65765057,43.3040189 C0.61429119,40.0852689 -0.825943185,34.0919095 0.52991619,32.3770657 C1.66921058,30.9361258 0.78383134,31.3996652 4.15491619,31.3239407 C18.225264,31.0078796 31.7842484,31.0078796 44.8318693,31.3239407 C47.5452235,30.768472 49.123562,31.3501126 49.5668849,33.0688626 C50.2318693,35.6469876 49.0670256,37.2895657 46.8865568,40.6141751 C44.7060881,43.9387845 42.9826506,46.2685814 40.1201506,47.0044095 C38.2118172,47.4949616 27.904786,47.6623157 9.19905682,47.506472 Z" id="Path-9" fill="#FFFFFF"></path>
            </g>
        </g>
    </g>
</svg>