<?xml version="1.0" encoding="UTF-8"?>
<svg width="48px" height="48px" viewBox="0 0 48 48" version="1.1" xmlns="http://www.w3.org/2000/svg" xmlns:xlink="http://www.w3.org/1999/xlink">
    <!-- Generator: Sketch 61 (89581) - https://sketch.com -->
    <title>spyglass_us</title>
    <desc>Created with Sketch.</desc>
    <g id="Page-1" stroke="none" stroke-width="1" fill="none" fill-rule="evenodd">
        <g id="12.9″-iPad-Pro" transform="translate(-595.000000, -582.000000)" fill="#838383">
            <path d="M636.603605,611.786273 C639.339859,611.227869 641.561674,612.20677 642.057913,612.817583 C642.720515,613.633171 643.033594,614.670687 642.99715,615.930132 C642.19448,615.014457 641.318792,614.551263 640.370087,614.540549 C638.947029,614.524477 635.188329,614.55662 632.033869,617.582148 C628.879408,620.607676 628.166031,622.917834 627.647583,625.658389 C627.129135,628.398945 628.991463,629.980209 628.991463,629.980209 C628.991463,629.980209 626.997784,630.275764 625.639545,628.58259 C624.846505,627.593989 624.218281,625.042446 625.329449,622.012743 C626.121377,619.853477 627.261811,617.987067 629.398051,615.930132 C630.77239,614.606812 633.859487,612.346282 636.603605,611.786273 Z M642.230615,618.736639 C642.914938,621.363176 640.467162,625.088837 638.535383,626.683623 C636.603605,628.27841 632.33521,630.583472 630.787259,628.633548 C632.756778,629.10824 635.833422,627.878097 637.131391,625.512277 C636.448216,625.741294 634.359493,626.426433 633.531921,624.726252 C632.704349,623.02607 634.774129,620.345439 636.507003,619.399778 C634.949851,619.104189 633.148905,619.89567 631.104164,621.77422 C632.218681,619.771901 633.839164,618.263449 635.965612,617.248864 C639.155284,615.726986 641.546293,616.110101 642.230615,618.736639 Z M620.948222,607.139304 C624.532863,603.851532 628.127123,603.445247 629.497461,603.613996 C631.105914,604.896959 634.85625,607.906808 636.603605,609.614486 C634.871813,609.900831 631.540905,611.610469 628.329056,614.633449 C625.117206,617.656429 623.048083,621.44417 622.76386,623.836448 C621.680274,622.901762 617.201388,617.220739 616.281216,615.735708 C615.963338,614.778091 617.36358,610.427075 620.948222,607.139304 Z M625.300268,601.060416 C626.511212,601.350485 627.074275,601.674982 626.989456,602.033909 C623.64519,602.766527 621.005416,604.207198 619.070136,606.355924 C617.134856,608.504649 615.795126,611.07724 615.050947,614.073696 C614.558373,613.275224 614.312085,612.289123 614.312085,611.115393 C614.312085,609.354797 615.093162,607.215936 617.46246,604.624922 C619.831759,602.033909 623.483851,600.625314 625.300268,601.060416 Z M615.018264,594.286082 L621.682414,599.675537 C619.423228,600.523899 617.623904,601.586667 616.284442,602.86384 C614.94498,604.141014 613.757861,606.099006 612.723086,608.737814 L612.723086,608.737814 L607.433802,601.991182 C607.505917,599.720926 608.28944,597.891276 609.78437,596.502231 C611.2793,595.113186 613.023931,594.37447 615.018264,594.286082 L615.018264,594.286082 Z M611.371813,591.828606 C612.129327,592.012432 612.690704,592.226481 613.055944,592.470753 C611.245946,593.028233 609.69339,593.9039 608.398275,595.097752 C607.10316,596.291605 606.166313,597.959273 605.587734,600.100757 C605.05186,599.437813 604.783923,598.734425 604.783923,597.990594 C604.783923,596.874847 605.408852,595.566358 606.890982,593.924349 C608.373111,592.282339 610.235542,591.552868 611.371813,591.828606 Z M602.81703,586.040081 L608.258401,590.557387 C607.179426,591.098098 606.308343,591.68572 605.64515,592.320252 C604.981957,592.954784 604.309093,593.873562 603.626558,595.076585 L603.626558,595.076585 L599.139452,589.669657 C599.272443,588.600022 599.709023,587.720149 600.449191,587.030037 C601.189359,586.339924 601.978638,586.009939 602.81703,586.040081 L602.81703,586.040081 Z M597.608425,583.658191 C599.724433,581.751973 602.558778,581.751973 603.060982,582.358862 C603.395785,582.763455 603.523209,583.390629 603.443253,584.240385 C602.006707,583.952146 600.572107,584.396297 599.139452,585.572836 C597.706798,586.749376 597.122336,588.321461 597.386067,590.289089 C596.831758,590.467955 596.224632,590.305706 595.564689,589.802343 C595.006652,589.376708 594.772111,588.137216 595.281634,586.750748 C595.675966,585.677727 596.785068,584.399917 597.608425,583.658191 Z" id="spyglass_us"></path>
        </g>
    </g>
</svg>