<?xml version="1.0" encoding="UTF-8"?>
<svg width="43px" height="50px" viewBox="0 0 43 50" version="1.1" xmlns="http://www.w3.org/2000/svg" xmlns:xlink="http://www.w3.org/1999/xlink">
    <!-- Generator: Sketch 61 (89581) - https://sketch.com -->
    <title>tea_madleine_us</title>
    <desc>Created with Sketch.</desc>
    <g id="Page-1" stroke="none" stroke-width="1" fill="none" fill-rule="evenodd">
        <g id="12.9″-iPad-Pro" transform="translate(-600.000000, -815.000000)">
            <g id="tea_madleine_us" transform="translate(600.000000, 815.000000)">
                <g id="teacup" transform="translate(0.000000, 26.193848)" fill="#838383">
                    <path d="M33.5061035,5.82641602 C34.399821,4.89640299 35.5627441,4.43139648 36.994873,4.43139648 C39.1430664,4.43139648 40.232666,5.15185547 40.232666,7.84179688 C40.232666,10.5317383 37.9023438,14.0263672 33.5061035,14.9133301 C30.5752767,15.5046387 29.3732096,15.3376465 29.8999023,14.4123535 L27.2443848,18.6044922 C28.8483887,17.9122721 30.5926107,17.4547526 32.4770508,17.2319336 C35.3037109,16.8977051 40.1162109,15.6540527 41.6242676,10.890625 C43.1323242,6.12719727 41.6242676,4.39794922 40.232666,3.16918945 C39.3049316,2.35001628 37.2300618,2.23299154 34.0080566,2.81811523 L33.5061035,5.82641602 Z" id="Path-18"></path>
                    <path d="M0,-1.42108547e-14 L34.8466797,-1.42108547e-14 C34.1500952,6.0283804 33.288116,9.97117011 32.2607422,11.8283691 C27.6911621,20.0888672 26.5092773,19.2297363 25.1411133,20.4355469 C25.1411133,21.296875 25.1411133,21.7275391 25.1411133,21.7275391 L27.046875,23.6567383 L7.84472656,23.6567383 L9.76611328,21.7275391 C9.76611328,21.7275391 9.76611328,21.296875 9.76611328,20.4355469 C7.24975586,19.0109863 6.40283203,19.0195312 3.27148438,13.3637695 C1.18391927,9.59326172 0.0934244792,5.13867187 0,-1.42108547e-14 Z" id="Path-17"></path>
                </g>
                <g id="teabag" transform="translate(15.259766, 26.000000)" fill="#000000">
                    <rect id="teabag_label" x="0" y="9" width="6" height="6.75"></rect>
                    <rect id="teabag_string" x="2.75" y="0" width="1" height="9"></rect>
                </g>
                <path d="M18.4683871,0.743013471 C19.1043393,0.327533341 19.6337138,0.174658214 20.0565107,0.284388089 C20.690706,0.448982901 21.1963251,1.28367665 21.5728484,1.42097498 C21.9493717,1.55827331 22.6743572,1.69542329 23.0597145,2.06318403 C23.4450719,2.43094477 24.0692453,3.8370844 24.0692453,3.8370844 C24.0692453,3.8370844 24.9779641,4.85877388 25.1330424,5.17832072 C25.2881207,5.49786757 25.4068978,6.85838944 25.4068978,6.9800368 C25.4068978,7.10168416 26.0097656,7.84796105 26.0097656,9.07630268 C26.0097656,10.3046443 25.6835741,13.0092953 25.5331727,14.0217129 C25.3827712,15.0341305 23.3657882,22.5643246 22.7980338,23.2093523 C22.6847584,23.3380448 22.7121302,23.5355741 22.1720044,23.6121238 C20.593397,23.8358528 17.2277308,23.751261 15.4691177,23.6121238 C14.8135519,23.560257 14.3248859,23.349802 14.1369587,23.2886456 C13.6167894,23.1109218 13.0586857,21.3604608 12.7301928,20.3218594 C12.4017,19.2832579 10.9815717,13.7341356 10.832655,12.0576273 C10.6837382,10.381119 10.7858123,7.5538563 10.934729,7.2078289 C11.0836458,6.8618015 11.3850426,6.61887766 11.4860773,6.06100583 C11.5871121,5.50313401 11.8892512,4.48211211 12.1161154,4.150178 C12.3429796,3.8182439 13.1079039,3.46042264 13.1079039,3.24546285 C13.1079039,3.03050307 14.1766005,1.68659644 14.4950715,1.5636881 C14.8135425,1.44077976 15.3937685,1.32224776 15.6533706,1.20364158 C15.9129728,1.08503541 16.2438411,0.405442047 17.0284379,0.284388089 C17.5515024,0.20368545 18.0314854,0.356560577 18.4683871,0.743013471 Z M23.1384043,2.81294715 C23.2680804,3.22302939 23.2377164,3.66394758 23.0473121,4.13570169 C22.7617057,4.84333287 22.3626187,5.28673492 22.1682926,6.47346195 C22.0387419,7.26461331 21.7692417,9.50768271 21.359792,13.2026701 L21.359792,13.2026701 L20.9856443,18.4567976 L20.6320068,21.761446 C20.6012096,21.9134598 20.585811,22.1690201 20.585811,22.5281271 C20.585811,22.8872341 20.4669809,23.1687036 20.2293208,23.3725357 C20.4350285,23.3595248 20.5999206,23.3595248 20.723997,23.3725357 C20.8480735,23.3855465 21.0305336,23.3884232 21.2713773,23.3811659 C21.0736977,23.3045773 20.9784533,23.020231 20.9856443,22.5281271 C20.9964306,21.7899713 21.359792,18.7950366 21.359792,18.4567976 C21.359792,18.1185586 21.8522053,13.97083 21.8522053,13.2026701 C21.8522053,12.4345103 22.460113,6.48120845 22.7653701,5.76675274 C23.0706272,5.05229702 23.3688132,4.57627352 23.3688132,4.57627352 C23.3688132,4.57627352 23.6650605,4.16000492 24.047717,4.18756231 C23.8414903,4.01332472 23.7784587,3.94303477 23.5676349,3.59278832 C23.5194745,3.31902317 23.3763976,3.05907611 23.1384043,2.81294715 Z M24.9438899,5.60178705 L24.7018817,6.4648899 C24.5418296,7.11080772 24.4618035,7.43376662 24.4618035,7.43376662 C24.4618035,7.43376662 23.5000062,11.371284 23.5000062,11.3914596 C23.5000062,11.4116353 23.1516925,13.6637433 23.1516925,14.0438171 C23.1516925,14.423891 22.241489,19.4319422 22.241489,19.7750767 C22.241489,19.9406539 22.0528966,21.6371102 21.8660792,22.7320719 C21.7947955,23.1498755 21.8145968,23.1447828 21.5649052,23.3660173 C21.8169352,23.3889305 22.1682926,23.4181308 22.1682926,23.1856162 C22.1682926,22.8368444 22.374742,20.6813125 22.4895104,19.8751762 C22.6042787,19.0690399 23.5000062,14.4658927 23.5000062,14.0438171 C23.5000062,13.6217416 23.8463899,11.3914596 23.8463899,11.371284 C23.8463899,11.3511083 24.3536793,8.41829431 24.4618035,8.03473425 C24.5699278,7.65117419 24.7846173,7.43376662 24.9438899,7.43376662 C25.1273015,7.43376662 25.1739091,7.53249384 25.4714457,7.72801972 C25.2694796,7.4639936 25.1211072,7.14098524 25.0263286,6.75899465 C24.9315501,6.37700406 24.9040705,5.99126819 24.9438899,5.60178705 L24.9438899,5.60178705 Z M16.1528282,1.13925749 C15.9610163,1.31733478 15.8011127,1.44092305 15.6731173,1.51002233 C15.5451219,1.5791216 15.364952,1.6301047 15.1326074,1.66297163 C15.3206123,1.79818875 15.4404411,1.93943074 15.4920937,2.08669757 C15.6953014,2.66606361 15.719304,3.44910466 15.7218933,3.76870052 L15.7221871,7.55037007 L15.7221871,7.55037007 C15.7221871,8.12003575 15.9371713,10.5088734 16.3671398,14.7168831 C16.9143635,20.1568937 17.1964546,22.9455589 17.2134133,23.0828786 C17.2303721,23.2201984 17.2088536,23.3145779 17.148858,23.3660173 L17.4960038,23.3660173 C17.4497814,23.2606229 17.4229642,23.1662433 17.4155521,23.0828786 C16.9665979,18.0334201 16.7888051,15.1805184 16.7888051,14.7168831 C16.7888051,14.0042076 16.0939593,7.93326255 16.0939593,7.55037007 L16.0939593,4.2220167 L16.0939593,4.2220167 C16.0426872,2.92031578 16.0170512,2.13994302 16.0170512,1.88089843 C16.0170512,1.62185383 16.0623102,1.37464019 16.1528282,1.13925749 Z M17.8436568,0.702476713 C17.9775024,1.00345298 18.0473458,1.20739775 18.053187,1.31431101 C18.0781432,1.77109379 18.0205364,2.07212214 17.9955801,2.29001185 C17.9706239,2.50790156 17.701587,4.1519953 17.646524,4.99636891 C17.591461,5.84074252 17.452472,10.650962 17.452472,11.279678 C17.452472,11.698822 17.5531152,14.0343313 17.7544016,18.2862057 C17.9908829,21.3961696 18.0206347,23.0207252 17.8436568,23.1598723 C17.666679,23.2990194 17.6193224,23.3676898 17.701587,23.3658836 L17.701587,23.3658836 L18.5936226,23.3658836 C18.4668589,23.2572954 18.3972399,23.1205274 18.3847656,22.9555796 C18.161457,20.00276 18.053187,17.9796694 18.053187,17.6045244 C18.053187,16.9946557 17.9119908,12.6350072 17.9119908,11.8649177 L17.912763,11.7698316 C17.9270344,10.7417587 18.135092,5.87017346 18.2001736,4.99636891 C18.2675796,4.09135706 18.385837,2.9115631 18.4897298,2.15556926 C18.5589917,1.65157337 18.7046831,1.24776348 18.9268041,0.944139579 C18.678478,1.05871557 18.4977984,1.13039355 18.3847656,1.15917354 C18.2750993,1.03960244 18.2307119,0.962666855 18.053187,0.794861949 C18.0295716,0.772539578 17.9597282,0.741744499 17.8436568,0.702476713 Z M20.4462479,0.944139579 C20.5623455,1.2139915 20.6242651,1.44511963 20.6320068,1.63752396 C20.6650978,2.45993831 20.5151207,2.97963396 20.4462479,3.21126808 C20.3066849,3.68064886 20.1262818,4.44513314 20.0379517,5.1451644 C19.9496217,5.84519565 19.7174021,8.71684957 19.7174021,9.33339399 C19.7174021,9.94993842 19.4263369,18.5210815 19.4263369,19.4131314 C19.4263369,19.8921295 19.5511606,21.4012086 19.3351154,22.8139658 C19.300325,23.0414664 19.1642212,23.2222242 18.9268041,23.3562391 C19.353071,23.3690984 19.646998,23.3690984 19.8085849,23.3562391 C19.8085849,23.2902316 19.6290963,23.2010092 19.6290963,22.876899 C19.6290963,21.8934765 19.7174021,19.9220867 19.7174021,19.3320652 C19.7174021,18.5475881 20.0379517,10.2550953 20.0379517,9.33339399 C20.0379517,8.41169272 20.3550235,5.42955541 20.3550235,5.42955541 C20.3550235,5.42955541 20.5135833,4.18906352 20.5649058,3.95522697 C20.6559844,3.54025239 20.8069815,2.51997742 21.2847623,2.08669757 C21.3785038,2.00168729 21.5935941,1.97202957 21.9300333,1.9977244 C21.8576886,1.94438026 21.795776,1.90426383 21.7442956,1.8773751 C21.4588094,1.72826276 21.2061196,1.61182689 21.1223492,1.5481113 C21.0543223,1.49637012 20.7972167,1.21213875 20.6320068,1.06204109 C20.569831,1.00555278 20.5079114,0.966252273 20.4462479,0.944139579 Z M14.1250439,2.40600908 C13.8332235,2.61444999 13.6334677,2.8302547 13.5257765,3.05342321 C13.5086763,3.0888598 13.3610239,3.40377942 13.2489145,3.52536304 C13.0852885,3.70281699 12.8955157,3.75953421 12.8955157,3.75953421 C12.8955157,3.75953421 13.1817637,3.75605902 13.3886261,4.02997706 C13.6162031,4.33132459 13.7138154,4.75366759 13.7622171,5.09962081 C13.8122978,5.45757552 14.2446004,9.11146174 14.2446004,9.75218728 C14.2446004,10.3929128 14.8438307,16.253942 15.2818077,18.5272641 C15.5378362,19.8561817 15.9149275,21.5044932 16.1479831,22.9452687 C16.169803,23.0801618 16.157107,23.2099586 16.1098952,23.334659 L16.1098952,23.334659 L16.6878446,23.334659 C16.6878446,23.334659 16.5467958,23.3106266 16.4337013,22.7840811 C16.1559976,21.4911476 15.7352526,18.8974948 15.7352526,18.5272641 C15.7352526,18.0062574 14.6111761,10.0643166 14.6111761,9.75218728 C14.6111761,9.44005796 14.3349636,5.68808992 14.2446004,5.09962081 C14.1542372,4.51115171 13.9211927,4.02997706 13.9211927,3.22395204 C13.9211927,3.02474212 13.9891431,2.75209447 14.1250439,2.40600908 Z M12.2566435,4.65946506 C12.1343986,4.87039854 12.0484708,5.05139844 11.9988602,5.20246476 C11.9363868,5.39269859 11.8849676,5.71267066 11.8369151,5.9072406 C11.7316242,6.33357504 11.6462779,6.58478178 11.5808763,6.66086083 C11.6728008,6.65598297 11.7581471,6.67277129 11.8369151,6.71122581 C12.0768002,6.82833764 12.1426346,7.16521237 12.1939144,7.32064941 C12.2499722,7.49056924 12.5408661,8.57662902 12.6816056,10.0054957 C12.8290983,11.5029247 12.7567185,12.3426085 12.888686,13.7812369 C12.9580596,14.5375053 14.5253143,20.9657599 15.0041204,22.8893505 C15.0908278,23.2376956 15.0150478,23.1912931 14.9218276,23.2183918 C15.0175916,23.2821825 15.3801487,23.3023581 15.5339951,23.2821825 C15.3984008,23.1776449 15.3683978,23.2989171 15.2681024,22.8634189 C14.8141907,20.8924645 13.5579162,15.1289369 13.4409829,13.7812369 C13.357594,12.8201485 13.3915213,10.9968846 13.2095325,9.748256 C13.0275438,8.49962744 12.7442605,7.40936297 12.6285271,7.00362452 C12.5127937,6.59788607 12.3211288,6.19652837 12.1939144,5.64358479 C12.1434249,5.42412996 12.1643346,5.09609005 12.2566435,4.65946506 Z" id="madeleine" fill="#838383" transform="translate(18.384766, 12.000000) rotate(179.000000) translate(-18.384766, -12.000000) "></path>
            </g>
        </g>
    </g>
</svg>