<?xml version="1.0" encoding="UTF-8"?>
<svg width="50px" height="50px" viewBox="0 0 50 50" version="1.1" xmlns="http://www.w3.org/2000/svg" xmlns:xlink="http://www.w3.org/1999/xlink">
    <!-- Generator: Sketch 61 (89581) - https://sketch.com -->
    <title>wheel_us</title>
    <desc>Created with Sketch.</desc>
    <g id="Page-1" stroke="none" stroke-width="1" fill="none" fill-rule="evenodd">
        <g id="12.9″-iPad-Pro" transform="translate(-593.000000, -512.000000)" fill="#BEBEBE">
            <g id="wheel_us" transform="translate(593.000000, 512.000000)">
                <path d="M24.6204224,8.31940872 C33.7331207,8.31940872 41.1204224,15.7067103 41.1204224,24.8194087 C41.1204224,33.9321071 33.7331207,41.3194087 24.6204224,41.3194087 C15.507724,41.3194087 8.12042236,33.9321071 8.12042236,24.8194087 C8.12042236,15.7067103 15.507724,8.31940872 24.6204224,8.31940872 Z M24.9504224,13.1594087 C18.3285282,13.1594087 12.9604224,18.5275146 12.9604224,25.1494087 C12.9604224,31.7713029 18.3285282,37.1394087 24.9504224,37.1394087 C31.5723165,37.1394087 36.9404224,31.7713029 36.9404224,25.1494087 C36.9404224,18.5275146 31.5723165,13.1594087 24.9504224,13.1594087 Z" id="center-outer"></path>
                <path d="M24.6204224,20.6394087 C26.9289726,20.6394087 28.8004224,22.5108585 28.8004224,24.8194087 C28.8004224,27.127959 26.9289726,28.9994087 24.6204224,28.9994087 C22.3118721,28.9994087 20.4404224,27.127959 20.4404224,24.8194087 C20.4404224,22.5108585 22.3118721,20.6394087 24.6204224,20.6394087 Z M24.6204224,22.3994087 C23.2838933,22.3994087 22.2004224,23.4828796 22.2004224,24.8194087 C22.2004224,26.1559378 23.2838933,27.2394087 24.6204224,27.2394087 C25.9569515,27.2394087 27.0404224,26.1559378 27.0404224,24.8194087 C27.0404224,23.4828796 25.9569515,22.3994087 24.6204224,22.3994087 Z" id="center-inner"></path>
                <g id="-spokes">
                    <path d="M34.9961006,17.5184131 C35.6836722,17.5184131 36.2082132,17.5937695 36.5697237,17.7444824 L36.5697237,18.1978027 C36.1252836,18.5394759 35.9030635,18.8535417 35.9030635,19.14 C35.9030635,19.4264583 35.9593526,21.333125 36.0719307,24.86 C35.6795186,24.7366439 35.2910453,24.6749658 34.9065108,24.6749658 C34.5219763,24.6749658 34.1457132,24.7366439 33.7777217,24.86 C33.9277861,21.5227033 33.9901266,19.6160366 33.9647432,19.14 C33.9393598,18.6639634 33.7586046,18.3498976 33.4224776,18.1978027 L33.4224776,17.7444824 C33.783988,17.5937695 34.308529,17.5184131 34.9961006,17.5184131 Z M34.8098311,4.4 C37.2128584,4.4 35.8099287,8.4090918 35.8099287,9.45398438 C35.8099287,10.1505794 36.0306449,10.8028092 36.4720772,11.4106738 L36.4720772,12.4876855 C35.7478508,12.4148177 35.1937688,12.3783838 34.8098311,12.3783838 C34.4258934,12.3783838 33.8884259,12.4148177 33.1974287,12.4876855 C33.173402,12.1438639 33.173402,11.78486 33.1974287,11.4106738 C33.6345283,10.8369336 33.8602217,10.745625 33.8602217,9.45398438 C33.8602217,8.16234375 32.4068037,4.4 34.8098311,4.4 Z" id="Combined-Shape" transform="translate(34.874566, 14.630000) rotate(45.000000) translate(-34.874566, -14.630000) "></path>
                    <path d="M39.2166919,27.7078218 C39.9042635,27.7078218 40.4288045,27.7831782 40.7903149,27.9338911 L40.7903149,28.3872115 C40.3458748,28.7288846 40.1236548,29.0429504 40.1236548,29.3294087 C40.1236548,29.6158671 40.1799438,31.5225337 40.292522,35.0494087 C39.9001099,34.9260526 39.5116366,34.8643745 39.1271021,34.8643745 C38.7425675,34.8643745 38.3663045,34.9260526 37.998313,35.0494087 C38.1483774,31.712112 38.2107179,29.8054453 38.1853345,29.3294087 C38.1599511,28.8533721 37.9791959,28.5393064 37.6430688,28.3872115 L37.6430688,27.9338911 C38.0045793,27.7831782 38.5291203,27.7078218 39.2166919,27.7078218 Z M39.0304224,14.5894087 C41.4334497,14.5894087 40.03052,18.5985005 40.03052,19.6433931 C40.03052,20.3399881 40.2512362,20.992218 40.6926685,21.6000825 L40.6926685,22.6770943 C39.9684421,22.6042264 39.4143601,22.5677925 39.0304224,22.5677925 C38.6464846,22.5677925 38.1090172,22.6042264 37.41802,22.6770943 C37.3939933,22.3332726 37.3939933,21.9742687 37.41802,21.6000825 C37.8551196,21.0263423 38.080813,20.9350337 38.080813,19.6433931 C38.080813,18.3517525 36.627395,14.5894087 39.0304224,14.5894087 Z" id="Combined-Shape" transform="translate(39.095157, 24.819409) rotate(90.000000) translate(-39.095157, -24.819409) "></path>
                    <path d="M34.9961006,37.8972305 C35.6836722,37.8972305 36.2082132,37.972587 36.5697237,38.1232999 L36.5697237,38.5766202 C36.1252836,38.9182933 35.9030635,39.2323591 35.9030635,39.5188174 C35.9030635,39.8052758 35.9593526,41.7119424 36.0719307,45.2388174 C35.6795186,45.1154613 35.2910453,45.0537833 34.9065108,45.0537833 C34.5219763,45.0537833 34.1457132,45.1154613 33.7777217,45.2388174 C33.9277861,41.9015207 33.9901266,39.994854 33.9647432,39.5188174 C33.9393598,39.0427808 33.7586046,38.7287151 33.4224776,38.5766202 L33.4224776,38.1232999 C33.783988,37.972587 34.308529,37.8972305 34.9961006,37.8972305 Z M34.8098311,24.7788174 C37.2128584,24.7788174 35.8099287,28.7879092 35.8099287,29.8328018 C35.8099287,30.5293969 36.0306449,31.1816267 36.4720772,31.7894913 L36.4720772,32.866503 C35.7478508,32.7936351 35.1937688,32.7572012 34.8098311,32.7572012 C34.4258934,32.7572012 33.8884259,32.7936351 33.1974287,32.866503 C33.173402,32.5226814 33.173402,32.1636775 33.1974287,31.7894913 C33.6345283,31.215751 33.8602217,31.1244424 33.8602217,29.8328018 C33.8602217,28.5411612 32.4068037,24.7788174 34.8098311,24.7788174 Z" id="Combined-Shape" transform="translate(34.874566, 35.008817) rotate(135.000000) translate(-34.874566, -35.008817) "></path>
                    <path d="M24.8066919,42.1178218 C25.4942635,42.1178218 26.0188045,42.1931782 26.3803149,42.3438911 L26.3803149,42.7972115 C25.9358748,43.1388846 25.7136548,43.4529504 25.7136548,43.7394087 C25.7136548,44.0258671 25.7699438,45.9325337 25.882522,49.4594087 C25.4901099,49.3360526 25.1016366,49.2743745 24.7171021,49.2743745 C24.3325675,49.2743745 23.9563045,49.3360526 23.588313,49.4594087 C23.7383774,46.122112 23.8007179,44.2154453 23.7753345,43.7394087 C23.7499511,43.2633721 23.5691959,42.9493064 23.2330688,42.7972115 L23.2330688,42.3438911 C23.5945793,42.1931782 24.1191203,42.1178218 24.8066919,42.1178218 Z M24.6204224,28.9994087 C27.0234497,28.9994087 25.62052,33.0085005 25.62052,34.0533931 C25.62052,34.7499881 25.8412362,35.402218 26.2826685,36.0100825 L26.2826685,37.0870943 C25.5584421,37.0142264 25.0043601,36.9777925 24.6204224,36.9777925 C24.2364846,36.9777925 23.6990172,37.0142264 23.00802,37.0870943 C22.9839933,36.7432726 22.9839933,36.3842687 23.00802,36.0100825 C23.4451196,35.4363423 23.670813,35.3450337 23.670813,34.0533931 C23.670813,32.7617525 22.217395,28.9994087 24.6204224,28.9994087 Z" id="Combined-Shape" transform="translate(24.685157, 39.229409) rotate(180.000000) translate(-24.685157, -39.229409) "></path>
                    <path d="M14.6172832,37.8972305 C15.3048548,37.8972305 15.8293958,37.972587 16.1909062,38.1232999 L16.1909062,38.5766202 C15.7464661,38.9182933 15.5242461,39.2323591 15.5242461,39.5188174 C15.5242461,39.8052758 15.5805351,41.7119424 15.6931133,45.2388174 C15.3007011,45.1154613 14.9122278,45.0537833 14.5276933,45.0537833 C14.1431588,45.0537833 13.7668958,45.1154613 13.3989043,45.2388174 C13.5489687,41.9015207 13.6113092,39.994854 13.5859258,39.5188174 C13.5605424,39.0427808 13.3797871,38.7287151 13.0436601,38.5766202 L13.0436601,38.1232999 C13.4051705,37.972587 13.9297116,37.8972305 14.6172832,37.8972305 Z M14.4310136,24.7788174 C16.834041,24.7788174 15.4311113,28.7879092 15.4311113,29.8328018 C15.4311113,30.5293969 15.6518274,31.1816267 16.0932597,31.7894913 L16.0932597,32.866503 C15.3690334,32.7936351 14.8149514,32.7572012 14.4310136,32.7572012 C14.0470759,32.7572012 13.5096085,32.7936351 12.8186113,32.866503 C12.7945846,32.5226814 12.7945846,32.1636775 12.8186113,31.7894913 C13.2557109,31.215751 13.4814043,31.1244424 13.4814043,29.8328018 C13.4814043,28.5411612 12.0279863,24.7788174 14.4310136,24.7788174 Z" id="Combined-Shape" transform="translate(14.495749, 35.008817) rotate(225.000000) translate(-14.495749, -35.008817) "></path>
                    <path d="M10.3966919,27.7078218 C11.0842635,27.7078218 11.6088045,27.7831782 11.9703149,27.9338911 L11.9703149,28.3872115 C11.5258748,28.7288846 11.3036548,29.0429504 11.3036548,29.3294087 C11.3036548,29.6158671 11.3599438,31.5225337 11.472522,35.0494087 C11.0801099,34.9260526 10.6916366,34.8643745 10.3071021,34.8643745 C9.92256755,34.8643745 9.54630452,34.9260526 9.17831299,35.0494087 C9.32837738,31.712112 9.39071787,29.8054453 9.36533447,29.3294087 C9.33995107,28.8533721 9.15919587,28.5393064 8.82306885,28.3872115 L8.82306885,27.9338911 C9.18457926,27.7831782 9.70912028,27.7078218 10.3966919,27.7078218 Z M10.2104224,14.5894087 C12.6134497,14.5894087 11.21052,18.5985005 11.21052,19.6433931 C11.21052,20.3399881 11.4312362,20.992218 11.8726685,21.6000825 L11.8726685,22.6770943 C11.1484421,22.6042264 10.5943601,22.5677925 10.2104224,22.5677925 C9.82648465,22.5677925 9.2890172,22.6042264 8.59802002,22.6770943 C8.57399333,22.3332726 8.57399333,21.9742687 8.59802002,21.6000825 C9.03511963,21.0263423 9.26081299,20.9350337 9.26081299,19.6433931 C9.26081299,18.3517525 7.80739502,14.5894087 10.2104224,14.5894087 Z" id="Combined-Shape" transform="translate(10.275157, 24.819409) rotate(270.000000) translate(-10.275157, -24.819409) "></path>
                    <path d="M14.6172832,17.5184131 C15.3048548,17.5184131 15.8293958,17.5937695 16.1909062,17.7444824 L16.1909062,18.1978027 C15.7464661,18.5394759 15.5242461,18.8535417 15.5242461,19.14 C15.5242461,19.4264583 15.5805351,21.333125 15.6931133,24.86 C15.3007011,24.7366439 14.9122278,24.6749658 14.5276933,24.6749658 C14.1431588,24.6749658 13.7668958,24.7366439 13.3989043,24.86 C13.5489687,21.5227033 13.6113092,19.6160366 13.5859258,19.14 C13.5605424,18.6639634 13.3797871,18.3498976 13.0436601,18.1978027 L13.0436601,17.7444824 C13.4051705,17.5937695 13.9297116,17.5184131 14.6172832,17.5184131 Z M14.4310136,4.4 C16.834041,4.4 15.4311113,8.4090918 15.4311113,9.45398437 C15.4311113,10.1505794 15.6518274,10.8028092 16.0932597,11.4106738 L16.0932597,12.4876855 C15.3690334,12.4148177 14.8149514,12.3783838 14.4310136,12.3783838 C14.0470759,12.3783838 13.5096085,12.4148177 12.8186113,12.4876855 C12.7945846,12.1438639 12.7945846,11.78486 12.8186113,11.4106738 C13.2557109,10.8369336 13.4814043,10.745625 13.4814043,9.45398437 C13.4814043,8.16234375 12.0279863,4.4 14.4310136,4.4 Z" id="Combined-Shape" transform="translate(14.495749, 14.630000) rotate(315.000000) translate(-14.495749, -14.630000) "></path>
                    <path d="M24.8066919,13.2978218 C25.4942635,13.2978218 26.0188045,13.3731782 26.3803149,13.5238911 L26.3803149,13.9772115 C25.9358748,14.3188846 25.7136548,14.6329504 25.7136548,14.9194087 C25.7136548,15.2058671 25.7699438,17.1125337 25.882522,20.6394087 C25.4901099,20.5160526 25.1016366,20.4543745 24.7171021,20.4543745 C24.3325675,20.4543745 23.9563045,20.5160526 23.588313,20.6394087 C23.7383774,17.302112 23.8007179,15.3954453 23.7753345,14.9194087 C23.7499511,14.4433721 23.5691959,14.1293064 23.2330688,13.9772115 L23.2330688,13.5238911 C23.5945793,13.3731782 24.1191203,13.2978218 24.8066919,13.2978218 Z M24.6204224,0.179408717 C27.0234497,0.179408717 25.62052,4.18850051 25.62052,5.23339309 C25.62052,5.92998814 25.8412362,6.58221796 26.2826685,7.19008255 L26.2826685,8.26709426 C25.5584421,8.19422643 25.0043601,8.15779251 24.6204224,8.15779251 C24.2364846,8.15779251 23.6990172,8.19422643 23.00802,8.26709426 C22.9839933,7.92327265 22.9839933,7.56426874 23.00802,7.19008255 C23.4451196,6.61634231 23.670813,6.52503372 23.670813,5.23339309 C23.670813,3.94175247 22.217395,0.179408717 24.6204224,0.179408717 Z" id="Combined-Shape"></path>
                </g>
            </g>
        </g>
    </g>
</svg>