<?xml version="1.0" encoding="UTF-8"?>
<svg width="44px" height="44px" viewBox="0 0 44 44" version="1.1" xmlns="http://www.w3.org/2000/svg" xmlns:xlink="http://www.w3.org/1999/xlink">
    <!-- Generator: Sketch 61 (89581) - https://sketch.com -->
    <title>world</title>
    <desc>Created with Sketch.</desc>
    <g id="Page-1" stroke="none" stroke-width="1" fill="none" fill-rule="evenodd">
        <g id="12.9″-iPad-Pro" transform="translate(-303.000000, -404.000000)" fill="#D8D8D8">
            <path d="M325,404 C337.150264,404 347,413.849736 347,426 C347,438.150264 337.150264,448 325,448 C312.849736,448 303,438.150264 303,426 C303,413.849736 312.849736,404 325,404 Z M325,407.069767 C323.584628,407.069767 322.205402,407.223961 320.878322,407.516407 C322.177362,408.046834 323.071279,408.888972 323.775047,409.273914 C324.771629,409.819018 326.448875,410.982172 326.927147,411.441838 C327.405418,411.901503 328.774559,411.815066 328.774559,412.951989 C328.774559,414.088913 328.669334,415.298283 327.798241,415.298283 C326.927147,415.298283 326.581932,416.032749 326.122215,416.032749 C325.662498,416.032749 324.257957,418.541424 324.257957,418.541424 C324.257957,418.541424 324.999657,420.477017 323.775047,420.477017 C322.550438,420.477017 323.539696,422.96096 322.550438,422.052871 C321.56118,421.144781 322.176903,420.025345 321.408592,419.681096 C320.896385,419.451596 320.104963,419.249076 319.034325,419.073537 C318.664207,420.172238 318.479149,420.854992 318.479149,421.121798 C318.479149,421.522007 321.90786,424.92728 322.550438,424.92728 C323.193016,424.92728 327.109276,425.348474 327.453758,425.348474 C327.798241,425.348474 332.000389,425.185093 332.406639,426.550849 C332.677472,427.461354 333.276431,428.169172 334.203514,428.674305 C336.9527,428.896477 338.327293,429.468727 338.327293,430.391057 C338.327293,431.77455 337.590965,433.871026 337.213768,434.37341 C336.836571,434.875795 333.50161,439.00804 332.406639,439.960097 C331.311668,440.912155 328.785301,443.065589 327.453758,443.533249 C326.122215,444.000908 322.990868,444.821811 323.382957,443.423828 C323.775047,442.025845 325.317284,438.403229 326.122215,436.920308 C326.927147,435.437386 323.270164,433.681663 323.270164,432.469545 C323.270164,431.257426 325.042381,427.805687 325.042381,427.384493 C325.042381,427.103697 324.780907,426.703821 324.257957,426.184866 C323.055972,426.984617 322.280581,427.384493 321.931786,427.384493 C321.58299,427.384493 321.408592,426.984617 321.408592,426.184866 C318.619127,425.305118 316.765367,424.523936 315.847313,423.84132 C314.470232,422.817396 314.677343,422.031752 314.204002,420.477017 C313.730661,418.922282 314.088036,416.893623 313.732079,416.893623 C313.376122,416.893623 312.573328,419.033629 312.19912,418.594386 C311.824912,418.155143 312.03286,416.414471 312.372948,415.298283 C312.686695,414.268547 312.132102,412.458712 312.311339,411.906786 C308.437355,415.374592 306,420.403704 306,426 C306,436.454879 314.50659,444.930233 325,444.930233 C335.49341,444.930233 344,436.454879 344,426 C344,415.545121 335.49341,407.069767 325,407.069767 Z" id="world"></path>
        </g>
    </g>
</svg>