<?xml version="1.0" encoding="UTF-8"?>
<svg width="63px" height="25px" viewBox="0 0 63 25" version="1.1" xmlns="http://www.w3.org/2000/svg" xmlns:xlink="http://www.w3.org/1999/xlink">
    <!-- Generator: Sketch 61.2 (89653) - https://sketch.com -->
    <title>Combined Shape</title>
    <desc>Created with Sketch.</desc>
    <g id="Page-1" stroke="none" stroke-width="1" fill="none" fill-rule="evenodd">
        <g id="12.9″-iPad-Pro" transform="translate(-222.000000, -1038.000000)" fill="#616161">
            <path d="M251.691268,1038 C254.359745,1038 256.651541,1041.11065 257.645105,1045.5545 L280.309486,1047.42097 C281.097753,1044.75778 282.877412,1042.87226 284.965271,1042.76658 L284.999091,1042.765 L285,1058.23501 C283.040404,1058.1545 281.348102,1056.50631 280.485201,1054.11502 L257.554628,1055.83192 C256.517173,1060.06863 254.281707,1063 251.691268,1063 C251.539263,1063 251.388481,1062.98991 251.239091,1062.97005 L251.239,1052.285 L228.817345,1052.28571 C228.618345,1052.28571 228.420519,1052.25525 228.230737,1052.19539 L222,1050.22999 L228.260601,1048.48803 C228.430802,1048.44067 228.606649,1048.41667 228.783316,1048.41667 L251.239,1048.416 L251.239091,1038.02995 C251.388481,1038.01009 251.539263,1038 251.691268,1038 Z M283.492576,1046.92857 C283.159621,1046.92857 282.889707,1047.66144 282.889707,1048.56548 C282.889707,1049.46951 283.159621,1050.20238 283.492576,1050.20238 C283.825531,1050.20238 284.095444,1049.46951 284.095444,1048.56548 C284.095444,1047.66144 283.825531,1046.92857 283.492576,1046.92857 Z M250.792688,1049.30952 L229.077981,1049.30952 C228.831425,1049.30952 228.631552,1049.5094 228.631552,1049.75595 C228.631552,1049.97511 228.789477,1050.15739 228.997735,1050.19519 L229.077981,1050.20238 L250.792688,1050.20238 C251.039244,1050.20238 251.239117,1050.00251 251.239117,1049.75595 C251.239117,1049.5094 251.039244,1049.30952 250.792688,1049.30952 Z M258.552705,1046.53562 C258.057404,1046.53562 257.649185,1046.90846 257.593395,1047.3888 L257.586897,1047.50143 L257.586897,1047.56956 C257.586897,1048.0795 257.951768,1048.50945 258.442327,1048.60145 L258.557655,1048.61657 L278.836669,1050.15138 C278.860922,1050.15321 278.885235,1050.15413 278.909558,1050.15413 C279.404858,1050.15413 279.813078,1049.78129 279.868868,1049.30096 L279.875365,1049.18833 L279.875365,1049.12019 C279.875365,1048.61026 279.510495,1048.18031 279.019936,1048.0883 L278.904607,1048.07319 L258.625593,1046.53838 C258.60134,1046.53654 258.577027,1046.53562 258.552705,1046.53562 Z M252.746288,1043.35714 C252.413333,1043.35714 252.143419,1044.35651 252.143419,1045.58929 C252.143419,1046.82206 252.413333,1047.82143 252.746288,1047.82143 C253.079243,1047.82143 253.349156,1046.82206 253.349156,1045.58929 C253.349156,1044.35651 253.079243,1043.35714 252.746288,1043.35714 Z" id="Combined-Shape"></path>
        </g>
    </g>
</svg>