<?xml version="1.0" encoding="UTF-8"?>
<svg width="63px" height="25px" viewBox="0 0 63 25" version="1.1" xmlns="http://www.w3.org/2000/svg" xmlns:xlink="http://www.w3.org/1999/xlink">
    <!-- Generator: Sketch 61.2 (89653) - https://sketch.com -->
    <title>Combined Shape</title>
    <desc>Created with Sketch.</desc>
    <g id="Page-1" stroke="none" stroke-width="1" fill="none" fill-rule="evenodd">
        <g id="12.9″-iPad-Pro" transform="translate(-309.000000, -1038.000000)" fill="#979797">
            <path d="M338.691268,1038 C341.359745,1038 343.651541,1041.11065 344.645105,1045.5545 L367.309486,1047.42097 C368.097753,1044.75778 369.877412,1042.87226 371.965271,1042.76658 L371.999091,1042.765 L372,1058.23501 C370.040404,1058.1545 368.348102,1056.50631 367.485201,1054.11502 L344.554628,1055.83192 C343.517173,1060.06863 341.281707,1063 338.691268,1063 C338.539263,1063 338.388481,1062.98991 338.239091,1062.97005 L338.239,1052.285 L315.817345,1052.28571 C315.618345,1052.28571 315.420519,1052.25525 315.230737,1052.19539 L309,1050.22999 L315.260601,1048.48803 C315.430802,1048.44067 315.606649,1048.41667 315.783316,1048.41667 L338.239,1048.416 L338.239091,1038.02995 C338.388481,1038.01009 338.539263,1038 338.691268,1038 Z M370.492576,1046.92857 C370.159621,1046.92857 369.889707,1047.66144 369.889707,1048.56548 C369.889707,1049.46951 370.159621,1050.20238 370.492576,1050.20238 C370.825531,1050.20238 371.095444,1049.46951 371.095444,1048.56548 C371.095444,1047.66144 370.825531,1046.92857 370.492576,1046.92857 Z M337.792688,1049.30952 L316.077981,1049.30952 C315.831425,1049.30952 315.631552,1049.5094 315.631552,1049.75595 C315.631552,1049.97511 315.789477,1050.15739 315.997735,1050.19519 L316.077981,1050.20238 L337.792688,1050.20238 C338.039244,1050.20238 338.239117,1050.00251 338.239117,1049.75595 C338.239117,1049.5094 338.039244,1049.30952 337.792688,1049.30952 Z M345.552705,1046.53562 C345.057404,1046.53562 344.649185,1046.90846 344.593395,1047.3888 L344.586897,1047.50143 L344.586897,1047.56956 C344.586897,1048.0795 344.951768,1048.50945 345.442327,1048.60145 L345.557655,1048.61657 L365.836669,1050.15138 C365.860922,1050.15321 365.885235,1050.15413 365.909558,1050.15413 C366.404858,1050.15413 366.813078,1049.78129 366.868868,1049.30096 L366.875365,1049.18833 L366.875365,1049.12019 C366.875365,1048.61026 366.510495,1048.18031 366.019936,1048.0883 L365.904607,1048.07319 L345.625593,1046.53838 C345.60134,1046.53654 345.577027,1046.53562 345.552705,1046.53562 Z M339.746288,1043.35714 C339.413333,1043.35714 339.143419,1044.35651 339.143419,1045.58929 C339.143419,1046.82206 339.413333,1047.82143 339.746288,1047.82143 C340.079243,1047.82143 340.349156,1046.82206 340.349156,1045.58929 C340.349156,1044.35651 340.079243,1043.35714 339.746288,1043.35714 Z" id="Combined-Shape"></path>
        </g>
    </g>
</svg>