<?xml version="1.0" encoding="UTF-8"?>
<svg width="25px" height="10px" viewBox="0 0 25 10" version="1.1" xmlns="http://www.w3.org/2000/svg" xmlns:xlink="http://www.w3.org/1999/xlink">
    <!-- Generator: Sketch 61.2 (89653) - https://sketch.com -->
    <title>Combined Shape Copy</title>
    <desc>Created with Sketch.</desc>
    <g id="Page-1" stroke="none" stroke-width="1" fill="none" fill-rule="evenodd">
        <g id="12.9″-iPad-Pro" transform="translate(-158.000000, -1088.000000)" fill="#FFFFFF">
            <path d="M169.782632,1088 C170.841348,1088 171.75065,1089.2437 172.145077,1091.0206 L181.139617,1091.76778 C181.442788,1090.73595 182.115094,1089.9961 182.910084,1089.91263 L182.999175,1089.907 L183.000543,1096.09399 C182.223025,1096.06165 181.551578,1095.40243 181.209181,1094.44605 L172.109349,1095.13313 C171.697608,1096.82762 170.810543,1098 169.782632,1098 C169.722168,1098 169.662191,1097.99594 169.60277,1097.98796 L169.602,1093.714 L160.707245,1093.71429 C160.627048,1093.71429 160.54733,1093.70192 160.470903,1093.67762 L158,1092.892 L160.482908,1092.19564 C160.551466,1092.17642 160.622334,1092.16667 160.693538,1092.16667 L169.602,1092.166 L169.60277,1088.01204 C169.662191,1088.00406 169.722168,1088 169.782632,1088 Z M182.402608,1091.57143 C182.270479,1091.57143 182.163367,1091.86458 182.163367,1092.22619 C182.163367,1092.58781 182.270479,1092.88095 182.402608,1092.88095 C182.534737,1092.88095 182.641849,1092.58781 182.641849,1092.22619 C182.641849,1091.86458 182.534737,1091.57143 182.402608,1091.57143 Z M169.424629,1092.52381 L160.810225,1092.52381 C160.711603,1092.52381 160.631654,1092.60376 160.631654,1092.70238 C160.631654,1092.78128 160.682821,1092.84823 160.753783,1092.87185 L160.810225,1092.88095 L169.424629,1092.88095 C169.521138,1092.88095 169.599766,1092.80439 169.603091,1092.70869 L169.602,1092.696 L169.594097,1092.64594 C169.570474,1092.57498 169.503527,1092.52381 169.424629,1092.52381 Z M172.523029,1091.41476 L172.508334,1091.41448 C172.321756,1091.41448 172.166089,1091.54683 172.130087,1091.72276 L172.122243,1091.80057 L172.122243,1091.82806 C172.122243,1092.02018 172.251726,1092.18393 172.430764,1092.23306 L172.510295,1092.24684 L180.551701,1092.8603 C180.561473,1092.86105 180.57127,1092.86142 180.58107,1092.86142 C180.767648,1092.86142 180.923315,1092.72908 180.959317,1092.55314 L180.967161,1092.47533 L180.967161,1092.44784 C180.967161,1092.25572 180.837677,1092.09197 180.65864,1092.04284 L180.579109,1092.02906 L172.537703,1091.4156 L172.523029,1091.41476 Z M170.201304,1090.14286 C170.069175,1090.14286 169.962063,1090.5426 169.962063,1091.03571 C169.962063,1091.52883 170.069175,1091.92857 170.201304,1091.92857 C170.333433,1091.92857 170.440545,1091.52883 170.440545,1091.03571 C170.440545,1090.5426 170.333433,1090.14286 170.201304,1090.14286 Z" id="Combined-Shape-Copy"></path>
        </g>
    </g>
</svg>