<?xml version="1.0" encoding="UTF-8"?>
<svg width="50px" height="50px" viewBox="0 0 50 50" version="1.1" xmlns="http://www.w3.org/2000/svg" xmlns:xlink="http://www.w3.org/1999/xlink">
    <!-- Generator: Sketch 61.2 (89653) - https://sketch.com -->
    <title>gear_white</title>
    <desc>Created with Sketch.</desc>
    <g id="Page-1" stroke="none" stroke-width="1" fill="none" fill-rule="evenodd">
        <g id="12.9″-iPad-Pro" transform="translate(-748.000000, -110.000000)" fill="#FFFFFF">
            <path d="M773.004764,110 C773.944026,110 774.871209,110.05229 775.783621,110.154148 L778.655009,119.157607 L786.647062,114.084096 C788.284738,115.161992 789.789962,116.428334 791.132655,117.852709 L787.567177,126.71875 L796.993479,128.037454 C797.539704,129.880236 797.883895,131.811308 798.000048,133.804376 L789.587402,138.303093 L795.964827,145.433769 C795.183579,147.243822 794.199095,148.943631 793.04053,150.503718 L783.770397,148.490192 L784.119804,158.009098 C782.383909,158.88001 780.533853,159.553287 778.598422,159.999823 L772.838005,152.513392 L767.130151,159.933266 C765.174949,159.457972 763.309068,158.750725 761.562573,157.841924 L761.905613,148.490192 L752.923273,150.441951 C751.731056,148.826357 750.72506,147.06204 749.937438,145.181508 L756.088609,138.303093 L747.999964,133.977678 C748.106783,131.905471 748.460041,129.899221 749.030666,127.988323 L758.108833,126.71875 L754.644234,118.102855 C756.000812,116.624347 757.529938,115.309967 759.199234,114.19245 L767.021001,119.157607 L769.880174,110.195201 C770.903808,110.066364 771.946621,110 773.004764,110 Z M773.039236,125.285714 C767.559905,125.285714 763.118029,129.776858 763.118029,135.316964 C763.118029,140.85707 767.559905,145.348214 773.039236,145.348214 C778.518567,145.348214 782.960443,140.85707 782.960443,135.316964 C782.960443,129.776858 778.518567,125.285714 773.039236,125.285714 Z" id="gear_white"></path>
        </g>
    </g>
</svg>