<?xml version="1.0" encoding="UTF-8"?>
<svg width="50px" height="50px" viewBox="0 0 50 50" version="1.1" xmlns="http://www.w3.org/2000/svg" xmlns:xlink="http://www.w3.org/1999/xlink">
    <!-- Generator: Sketch 61.2 (89653) - https://sketch.com -->
    <title>gear_grey copy</title>
    <desc>Created with Sketch.</desc>
    <g id="Page-1" stroke="none" stroke-width="1" fill="none" fill-rule="evenodd">
        <g id="12.9″-iPad-Pro" transform="translate(-922.000000, -110.000000)" fill="#393939">
            <path d="M947.004764,110 C947.944026,110 948.871209,110.05229 949.783621,110.154148 L952.655009,119.157607 L960.647062,114.084096 C962.284738,115.161992 963.789962,116.428334 965.132655,117.852709 L961.567177,126.71875 L970.993479,128.037454 C971.539704,129.880236 971.883895,131.811308 972.000048,133.804376 L963.587402,138.303093 L969.964827,145.433769 C969.183579,147.243822 968.199095,148.943631 967.04053,150.503718 L957.770397,148.490192 L958.119804,158.009098 C956.383909,158.88001 954.533853,159.553287 952.598422,159.999823 L946.838005,152.513392 L941.130151,159.933266 C939.174949,159.457972 937.309068,158.750725 935.562573,157.841924 L935.905613,148.490192 L926.923273,150.441951 C925.731056,148.826357 924.72506,147.06204 923.937438,145.181508 L930.088609,138.303093 L921.999964,133.977678 C922.106783,131.905471 922.460041,129.899221 923.030666,127.988323 L932.108833,126.71875 L928.644234,118.102855 C930.000812,116.624347 931.529938,115.309967 933.199234,114.19245 L941.021001,119.157607 L943.880174,110.195201 C944.903808,110.066364 945.946621,110 947.004764,110 Z M947.039236,125.285714 C941.559905,125.285714 937.118029,129.776858 937.118029,135.316964 C937.118029,140.85707 941.559905,145.348214 947.039236,145.348214 C952.518567,145.348214 956.960443,140.85707 956.960443,135.316964 C956.960443,129.776858 952.518567,125.285714 947.039236,125.285714 Z" id="gear_grey-copy"></path>
        </g>
    </g>
</svg>