<?xml version="1.0" encoding="UTF-8"?>
<svg width="50px" height="50px" viewBox="0 0 50 50" version="1.1" xmlns="http://www.w3.org/2000/svg" xmlns:xlink="http://www.w3.org/1999/xlink">
    <!-- Generator: Sketch 61.2 (89653) - https://sketch.com -->
    <title>gear_grey</title>
    <desc>Created with Sketch.</desc>
    <g id="Page-1" stroke="none" stroke-width="1" fill="none" fill-rule="evenodd">
        <g id="12.9″-iPad-Pro" transform="translate(-841.000000, -110.000000)" fill="#6D6D6D">
            <path d="M866.004764,110 C866.944026,110 867.871209,110.05229 868.783621,110.154148 L871.655009,119.157607 L879.647062,114.084096 C881.284738,115.161992 882.789962,116.428334 884.132655,117.852709 L880.567177,126.71875 L889.993479,128.037454 C890.539704,129.880236 890.883895,131.811308 891.000048,133.804376 L882.587402,138.303093 L888.964827,145.433769 C888.183579,147.243822 887.199095,148.943631 886.04053,150.503718 L876.770397,148.490192 L877.119804,158.009098 C875.383909,158.88001 873.533853,159.553287 871.598422,159.999823 L865.838005,152.513392 L860.130151,159.933266 C858.174949,159.457972 856.309068,158.750725 854.562573,157.841924 L854.905613,148.490192 L845.923273,150.441951 C844.731056,148.826357 843.72506,147.06204 842.937438,145.181508 L849.088609,138.303093 L840.999964,133.977678 C841.106783,131.905471 841.460041,129.899221 842.030666,127.988323 L851.108833,126.71875 L847.644234,118.102855 C849.000812,116.624347 850.529938,115.309967 852.199234,114.19245 L860.021001,119.157607 L862.880174,110.195201 C863.903808,110.066364 864.946621,110 866.004764,110 Z M866.039236,125.285714 C860.559905,125.285714 856.118029,129.776858 856.118029,135.316964 C856.118029,140.85707 860.559905,145.348214 866.039236,145.348214 C871.518567,145.348214 875.960443,140.85707 875.960443,135.316964 C875.960443,129.776858 871.518567,125.285714 866.039236,125.285714 Z" id="gear_grey"></path>
        </g>
    </g>
</svg>